<svg xmlns="http://www.w3.org/2000/svg" version="1.1" xmlns:xlink="http://www.w3.org/1999/xlink" xmlns:svgjs="http://svgjs.dev/svgjs" width="128" height="128" viewBox="0 0 128 128"><g transform="matrix(0.8046875,0,0,0.8046875,12.21160958746718,7.556766570723681)"><svg viewBox="0 0 86 95" data-background-color="#f9f9f9" preserveAspectRatio="xMidYMid meet" height="141" width="128" xmlns="http://www.w3.org/2000/svg" xmlns:xlink="http://www.w3.org/1999/xlink"><g id="tight-bounds" transform="matrix(1,0,0,1,0.24079199493031922,-0.24049999999999727)"><svg viewBox="0 0 85.51841601013936 95.481" height="95.481" width="85.51841601013936"><g><svg viewBox="0 0 85.51841601013936 95.481" height="95.481" width="85.51841601013936"><g><svg viewBox="0 0 85.51841601013936 95.481" height="95.481" width="85.51841601013936"><g id="textblocktransform"><svg viewBox="0 0 85.51841601013936 95.481" height="95.481" width="85.51841601013936" id="textblock"><g><svg viewBox="0 0 85.51841601013936 95.481" height="95.481" width="85.51841601013936"><g><svg viewBox="0 0 85.51841601013936 95.481" height="95.481" width="85.51841601013936"><g><svg xmlns="http://www.w3.org/2000/svg" xmlns:xlink="http://www.w3.org/1999/xlink" version="1.1" x="0" y="0" viewBox="27.241999999999994 24.589202289379408 45.519000000000005 50.821797710620594" enable-background="new 0 0 100 100" xml:space="preserve" height="95.481" width="85.51841601013936" class="icon-icon-0" data-fill-palette-color="accent" id="icon-0"><path d="M38.667 41.181c-3.267 0.738-5.862 2.896-7.312 6.076-0.172 0.377-0.006 0.822 0.371 0.994 0.102 0.045 0.207 0.066 0.312 0.066 0.284 0 0.558-0.163 0.685-0.439 1.25-2.742 3.478-4.602 6.274-5.234 0.403-0.092 0.657-0.493 0.565-0.896C39.473 41.343 39.072 41.087 38.667 41.181zM57.735 28.774c0 0.414 0.336 0.75 0.75 0.75h2.037c0.414 0 0.75-0.336 0.75-0.75s-0.336-0.75-0.75-0.75h-2.037C58.071 28.024 57.735 28.36 57.735 28.774zM57.562 26.997c0.108 0 0.22-0.023 0.324-0.074l1.885-0.908c0.373-0.18 0.53-0.628 0.351-1.001-0.179-0.372-0.627-0.53-1.001-0.351l-1.885 0.908c-0.373 0.181-0.53 0.629-0.351 1.002C57.015 26.841 57.283 26.997 57.562 26.997zM57.236 31.978l1.885 0.908c0.104 0.05 0.216 0.074 0.324 0.074 0.279 0 0.548-0.156 0.677-0.425 0.18-0.373 0.022-0.821-0.351-1.001l-1.885-0.908c-0.373-0.181-0.821-0.023-1.001 0.35S56.863 31.797 57.236 31.978zM42.113 30.626l-1.885 0.908c-0.373 0.18-0.529 0.628-0.35 1.001 0.129 0.269 0.397 0.425 0.676 0.425 0.109 0 0.221-0.024 0.326-0.074l1.885-0.908c0.373-0.181 0.529-0.629 0.35-1.002S42.486 30.446 42.113 30.626zM39.479 29.524h2.037c0.414 0 0.75-0.336 0.75-0.75s-0.336-0.75-0.75-0.75h-2.037c-0.414 0-0.75 0.336-0.75 0.75S39.064 29.524 39.479 29.524zM40.229 26.015l1.885 0.908c0.105 0.051 0.217 0.074 0.326 0.074 0.278 0 0.547-0.156 0.676-0.424 0.18-0.373 0.023-0.821-0.35-1.002l-1.885-0.908c-0.374-0.178-0.822-0.023-1.002 0.351C39.699 25.387 39.855 25.835 40.229 26.015zM49.296 28.035c-0.189 0.189-0.299 0.439-0.299 0.709 0 0.261 0.109 0.521 0.299 0.701 0.182 0.189 0.439 0.299 0.701 0.299 0.27 0 0.529-0.108 0.709-0.299 0.189-0.181 0.29-0.44 0.29-0.701 0-0.27-0.101-0.52-0.29-0.709C50.337 27.664 49.667 27.664 49.296 28.035zM60.979 37.61c-0.025-0.031-0.782-1.981-3.561-1.981h-1.452v-1.979c0-0.414-0.336-0.75-0.75-0.75h-0.95v-7.438c0-0.414-0.336-0.75-0.75-0.75h-7.029c-0.414 0-0.75 0.336-0.75 0.75v7.438h-0.951c-0.414 0-0.75 0.336-0.75 0.75v1.979c0 0-0.839 0-1.452 0-2.779 0-3.534 1.95-3.56 1.981-6.846 0.168-11.782 5.613-11.782 13.088 0 11.988 21.479 24.107 22.396 24.619 0.112 0.062 0.237 0.094 0.364 0.094 0.125 0 0.252-0.031 0.365-0.094 0.915-0.512 22.394-12.631 22.394-24.619C72.76 43.224 67.823 37.778 60.979 37.61zM47.237 26.181h5.529v6.688h-5.529V26.181zM45.535 34.399h8.931v1.444c-2.217 2.217-6.722 2.209-8.931 0V34.399zM61.865 50c-9.478-0.652-15.782 5.917-24.115 7.167-4.305 0.646-7.921-1.234-8.601-3.722-0.252-0.921-0.408-1.835-0.408-2.746 0-6.724 4.459-11.604 10.604-11.604 3.754 0 7.988 2.771 10.068 5.377 0.285 0.357 0.889 0.357 1.173 0 2.079-2.606 6.315-5.377 10.069-5.377 6.145 0 10.604 4.88 10.604 11.604 0 0.912-0.145 1.831-0.409 2.749C70.851 53.447 67.917 50.417 61.865 50z" fill="#ffffff" data-fill-palette-color="accent"></path></svg></g></svg></g></svg></g></svg></g></svg></g></svg></g><defs></defs></svg><rect width="85.51841601013936" height="95.481" fill="none" stroke="none" visibility="hidden"></rect></g></svg></g></svg>