<?xml version="1.0" encoding="UTF-8"?>
<svg version="1.1" viewBox="0 0 1080 1600" width="1280" height="1280" xmlns="http://www.w3.org/2000/svg">
<path transform="translate(806,1009)" d="m0 0h4c0.895 9.71 1.24 19.4 1.25 29.1 0.00167 0.742 0.00334 1.48 0.00507 2.25 0.00159 12-0.593 23.9-1.63 35.8-0.0631 0.742-0.126 1.48-0.191 2.25-1.73 19.9-1.73 19.9-4.43 22.6-0.144 1.07-0.289 2.14-0.438 3.25-0.562 3.75-0.562 3.75-1.62 6.31-1.13 2.5-1.13 2.5-0.938 5.62v2.81c-0.66 0.66-1.32 1.32-2 2-0.431 2.26-0.431 2.26-0.562 4.88-0.0748 0.986-0.15 1.97-0.227 2.99-0.104 1.55-0.104 1.55-0.211 3.14-1.12 16.1-1.12 16.1-3 22-0.66 0.33-1.32 0.66-2 1-0.395 2.12-0.395 2.12-0.5 4.62-0.36 4.4-0.996 8.22-2.5 12.4-0.66 0.33-1.32 0.66-2 1-0.337 4.67-0.337 4.67 1.11 8.97 0.887 2.03 0.887 2.03 0.312 4.13-0.367 0.687-0.735 1.37-1.11 2.08-0.354 0.695-0.709 1.39-1.07 2.11-1.24 1.71-1.24 1.71-4.24 2.71 0.0954 0.748 0.191 1.5 0.289 2.27 0.166 1.48 0.166 1.48 0.336 2.98 0.116 0.975 0.232 1.95 0.352 2.95 0.0251 2.99-0.292 4.35-1.98 6.8-1.52 0.959-1.52 0.959-3.06 1.94-3.15 1.75-3.15 1.75-3.69 4.69-0.0825 0.784-0.165 1.57-0.25 2.38-0.66 0.66-1.32 1.32-2 2-0.596 3.23-0.956 6.47-1.34 9.74-0.69 3.41-1.83 5.34-3.66 8.26-0.748 2.13-1.43 4.27-2.06 6.44-0.954 3.25-1.91 6.47-3 9.68-1.07 3.28-1.73 6.55-2.38 9.93-0.562 1.95-0.562 1.95-2.56 3.95-0.694 1.99-1.36 3.99-2 6-0.958 2.35-1.98 4.67-3 7h-2c-0.124 0.928-0.124 0.928-0.25 1.88-0.75 2.12-0.75 2.12-2.62 3.19-0.701 0.309-1.4 0.619-2.12 0.938-2.97 2.41-3.98 5.01-5.25 8.56-0.356 0.971-0.712 1.94-1.08 2.94-0.961 2.47-0.961 2.47 0.328 4.5-1.27 2.39-2.59 4.69-4 7-0.567 1.03-1.13 2.05-1.72 3.11-3.95 7.09-8.17 13.9-12.7 20.7-0.524 0.795-1.05 1.59-1.59 2.41-0.742 1.11-0.742 1.11-1.5 2.24-0.441 0.66-0.883 1.32-1.34 2-1.2 1.54-1.2 1.54-3.2 2.54-0.682 1.66-1.35 3.33-2 5-4.63 7.51-10.4 14.2-16 21-2.29 2.83-4.58 5.66-6.86 8.49-2.27 2.65-4.58 5.14-7.14 7.51h-2c-1.21 2.33-2.17 4.5-3 7 15.2 0.802 30.3 1.09 45.6 1.06 1.29-0.00216 1.29-0.00216 2.61-0.00436 6.24-0.0122 12.5-0.0342 18.7-0.0581 6.27-0.0239 12.5-0.0442 18.8-0.0559 2.45-0.00631 4.91-0.0188 7.36-0.0317 8.19-0.028 16.4 0.11 24.6 0.467 1.21 0.0459 1.21 0.0459 2.44 0.0928 4.8 0.238 9.27 0.919 13.9 2.09 3.25 0.702 6.42 0.641 9.73 0.596 0.694-0.0052 1.39-0.0104 2.1-0.0158 2.19-0.0176 4.37-0.0487 6.56-0.0819 8.4-0.108 16.7-0.21 25.1 0.686 4.57 0.451 9.15 0.544 13.7 0.689 7.71 0.263 15.4 0.58 23.1 1.04 24.6 1.43 49.1 1.91 73.7 2.19 11.9 0.136 23.8 0.281 35.7 0.744 0.887 0.0292 1.77 0.0584 2.69 0.0885 4.29 0.192 7.75 0.544 11.7 2.51v3c-4.34 1.59-8.41 2.45-13 3-1.07 0.165-2.14 0.33-3.24 0.5-6.08 0.76-12.2 0.755-18.3 0.888-14.7 0.325-14.7 0.325-29.4 1.61-10.4 1.25-20.9 1.42-31.4 1.66-1.39 0.0317-2.77 0.0636-4.16 0.0957-0.694 0.0158-1.39 0.0315-2.1 0.0477-5.07 0.129-10.1 0.413-15.2 0.734-6.39 0.393-12.7 0.521-19.1 0.457-0.828-0.00784-1.66-0.0157-2.51-0.0238-3.38-0.0363-6.75-0.0789-10.1-0.14-12.4-0.376-12.4-0.376-24.4 2.42-2.31 0.861-4.59 1.31-7.01 1.75v-3c-23.7-0.207-23.7-0.207-47.4 0.438-0.831 0.0392-1.66 0.0785-2.52 0.119-4.05 0.211-4.05 0.211-8.03 0.957-3.56 0.859-7.23 0.585-10.9 0.549-1.34-0.00568-1.34-0.00568-2.71-0.0115-3.79-0.0161-7.58-0.0432-11.4-0.0715-12.4-0.0842-24.7 0.0964-37.1 0.513-15 0.502-30 0.664-45 0.638-3.93-0.00661-7.86-7.64e-5 -11.8 0.00635-18.5 0.0115-37-0.264-55.6-0.575-35.6-0.598-71.1-0.866-107-1.08-7.54-0.0452-15.1-0.0941-22.6-0.143-7.36-0.048-14.7-0.0947-22.1-0.141-2.29-0.0145-4.59-0.0291-6.88-0.0437-14.7-0.0933-29.5-0.167-44.2-0.152-8.98 0.00564-18-0.077-26.9-0.187-1.7-0.0197-3.39-0.0394-5.09-0.059-4.47-0.052-8.94-0.106-13.4-0.161-2.78-0.0342-5.56-0.068-8.35-0.102-23.5-0.286-46.9-0.595-70.4-0.995-1.66-0.0268-1.66-0.0268-3.36-0.0542-11.3-0.185-22.6-0.457-34-1.12-6.57-0.374-13.1-0.374-19.7-0.268-2.9-0.0453-5.56-0.208-8.42-0.537-6.23-0.642-12.4-0.817-18.7-0.99-2.52-0.0785-5.05-0.157-7.57-0.236-3.94-0.12-7.88-0.237-11.8-0.348-3.83-0.11-7.66-0.231-11.5-0.353-1.17-0.0303-2.34-0.0606-3.54-0.0918-5.68-0.188-10.9-0.672-16.4-2.05-3.22-0.717-6.4-0.783-9.68-0.865-0.675-0.0194-1.35-0.0387-2.05-0.0587-2.12-0.0589-4.24-0.106-6.36-0.152-1.45-0.0383-2.9-0.0773-4.36-0.117-3.53-0.0951-7.05-0.179-10.6-0.258-0.33-0.66-0.66-1.32-1-2-0.66-0.66-1.32-1.32-2-2 5.24-1.7 9.99-2.38 15.5-2.59 0.817-0.037 1.63-0.074 2.47-0.112 11.4-0.486 22.9-0.65 34.3-0.846 2.95-0.0519 5.9-0.109 8.85-0.167 1.33-0.0204 1.33-0.0204 2.69-0.0411 4.81-0.0957 9.41-0.482 14.2-1.24 1.83-0.0421 3.67-0.0412 5.5 0 6.55 0.0537 13.1-0.165 19.6-0.438 1.02-0.0393 2.04-0.0786 3.09-0.119 0.962-0.0419 1.92-0.0838 2.92-0.127 0.865-0.0367 1.73-0.0733 2.62-0.111 2.41-0.134 2.41-0.134 5.25-1.21 4.66-0.356 9.33-0.432 14-0.562 0.705-0.0212 1.41-0.0424 2.13-0.0642 19.9-0.589 39.9-0.466 59.9-0.373v-1c22.7-0.6 45.5-1.05 68.2-1.03 0.773 5.09e-4 1.55 0.00102 2.34 0.00154 7.71 0.00657 15.4 0.0246 23.1 0.0576 15.5 0.064 30.9 0.0245 46.3-1.03 0.33-1.65 0.66-3.3 1-5-0.66-0.33-1.32-0.66-2-1-2.11-2.24-4.04-4.63-6-7-0.784-0.928-1.57-1.86-2.38-2.81-1.62-2.19-1.62-2.19-1.62-4.19l-1.75-0.688c-2.83-1.65-4.28-3.71-6.25-6.31l-1.56-1.56c-1.69-1.69-3.01-3.52-4.44-5.44-1.24-1.45-1.24-1.45-2.5-2.94-2.15-2.63-3.82-5.13-5.5-8.06-0.722-1.05-1.44-2.1-2.19-3.19-1.81-2.81-1.81-2.81-1.81-4.81h-2c-1.46-2.65-2-3.89-2-7-0.99-0.33-1.98-0.66-3-1-0.705-2.32-1.37-4.66-2-7-0.66-0.33-1.32-0.66-2-1-5-5.36-5-5.36-5-10-0.66-0.33-1.32-0.66-2-1-1.02-1.66-2.02-3.32-3-5-0.66-0.66-1.32-1.32-2-2-0.165-0.681-0.33-1.36-0.5-2.06-0.165-0.639-0.33-1.28-0.5-1.94-0.66-0.33-1.32-0.66-2-1l1-3c5.28 1.43 8.08 2.44 11 7.19 0.689 1.26 1.36 2.53 2 3.81-0.289-0.626-0.578-1.25-0.875-1.9-0.371-0.817-0.742-1.63-1.12-2.48-0.371-0.812-0.742-1.62-1.12-2.46-0.875-2.16-0.875-2.16-0.875-4.16 0.619 0.165 1.24 0.33 1.88 0.5 3.05 0.717 5.14 0.297 8.12-0.5 0.389 0.62 0.779 1.24 1.18 1.88 3.56 5.63 7.18 11.2 10.9 16.7 0.429 0.642 0.857 1.28 1.3 1.95 1.83 2.73 3.66 5.46 5.51 8.18 0.518 0.764 1.04 1.53 1.57 2.32 0.432 0.63 0.864 1.26 1.31 1.91 1.25 2.03 1.25 2.03 2.5 4.73 2.35 4.41 5.34 8.15 8.45 12.1 0.946 1.2 0.946 1.2 1.91 2.42 1.25 1.58 2.49 3.15 3.74 4.72 1.36 1.72 2.69 3.47 4.01 5.23 8.49 11.2 19.1 19.2 33.2 21.1 1.19 0.129 2.37 0.258 3.59 0.391 2.91 0.359 2.91 0.359 4.91 1.36 1.87 0.0703 3.75 0.0843 5.62 0.0625l3.04-0.0273c0.771-0.0116 1.54-0.0232 2.34-0.0352v-1c0.995 0.0174 0.995 0.0174 2.01 0.0352 6.81 0.0669 13.5-0.337 20.2-1.04 5.94-0.603 11.8-1.13 17.8-1v-2c0.82 0.0116 1.64 0.0232 2.48 0.0352 1.08 0.00902 2.16 0.018 3.27 0.0273 1.07 0.0116 2.13 0.0232 3.23 0.0352 2.57-0.0833 4.56-0.428 7.02-1.1-0.659-0.0184-1.32-0.0368-2-0.0557-6.88-0.195-13.8-0.409-20.6-0.634-2.56-0.0814-5.13-0.158-7.69-0.229-3.69-0.104-7.39-0.225-11.1-0.35-1.14-0.0283-2.28-0.0565-3.45-0.0856-6.39-0.235-11.3-1.01-17.1-3.64-1.11-0.474-2.23-0.949-3.38-1.44l-3.62-1.56c-0.692-0.251-1.38-0.503-2.1-0.762-11.7-4.33-22.8-10.4-31.8-19.2-2.14-2.15-2.14-2.15-4.88-4.12l-2.23-1.93v-3c-1.21-0.34-1.21-0.34-2.44-0.688-0.846-0.433-1.69-0.866-2.56-1.31-0.812-2.62-0.812-2.62-1-5 14.1-4.71 36.6 2.63 50.1 7.38 2.6 0.842 5.22 1.21 7.92 1.62 1.09 0.33 2.19 0.66 3.31 1 25.7 6.96 56.4 1.19 81.7-5 1.11-0.267 1.11-0.267 2.24-0.54 8.08-1.97 15.9-4.48 23.7-7.36 2.6-0.916 5.12-1.66 7.8-2.29 3.42-0.64 3.42-0.64 6.31-2.81-0.99-0.33-1.98-0.66-3-1 3.59-5.7 9.06-8.25 14.8-11.4 0.973-0.558 1.95-1.12 2.95-1.69 8.04-4.41 8.04-4.41 12.4-3.79 0.924 0.281 1.85 0.562 2.8 0.852-0.66 1.98-1.32 3.96-2 6 2.33-0.959 2.33-0.959 4-4 2-2 2-2 3.82-2.86 2.77-1.45 4.76-3.33 7.05-5.46 0.874-0.799 1.75-1.6 2.65-2.42 0.817-0.748 1.63-1.5 2.48-2.27 5.62-5 5.62-5 8-5 0.268-0.639 0.536-1.28 0.812-1.94 1.19-2.06 1.19-2.06 4.19-3.06 0.124-0.577 0.247-1.16 0.375-1.75 0.939-3.38 3.04-4.96 5.62-7.25 1.08-0.526 1.08-0.526 2.19-1.06 2.39-1.24 2.65-2.54 3.81-4.94 0.927-1.36 1.89-2.69 2.88-4 0.492-0.66 0.985-1.32 1.49-2 1.63-2 1.63-2 3.54-3.84 2.58-2.66 4.64-5.6 6.72-8.66 0.394-0.568 0.789-1.14 1.2-1.72 1.95-2.84 3.75-5.64 5.18-8.78h2c0.394-1.08 0.394-1.08 0.797-2.17 1.24-2.93 2.72-5.41 4.45-8.08 0.62-0.96 1.24-1.92 1.88-2.91 1.66-2.53 3.36-5.03 5.06-7.53 1.79-2.66 3.36-5.29 4.75-8.19 5.94-12.3 14.6-23.4 23.4-33.8 0.786-0.937 0.786-0.937 1.59-1.89 1.3-1.51 2.66-2.97 4.04-4.42h2c0.186-0.722 0.371-1.44 0.562-2.19 1.94-3.8 4.74-5.76 8.44-7.81h2c0.28-0.581 0.559-1.16 0.848-1.76 1.09-2.12 2.29-4.06 3.59-6.05 5.74-9.1 8.81-19.8 12.5-29.9 0.335-0.904 0.669-1.81 1.01-2.74 4.29-11.7 7.62-23.1 9.3-35.5 0.259-1.74 0.259-1.74 0.523-3.51 1.01-7.21 1.3-14.2 1.21-21.4 0.0239-3.91 0.558-7.35 1.33-11.2 1.83-9.66 2.72-19.4 3.6-29.2 0.114-1.2 0.227-2.41 0.344-3.65 0.0961-1.08 0.192-2.16 0.291-3.27 0.432-2.69 1.08-4.5 2.45-6.83zm-53 265c-0.33 0.99-0.66 1.98-1 3h2c0.33-0.99 0.66-1.98 1-3h-2zm-4 5 1 2zm-368 23c0.33 1.32 0.66 2.64 1 4 0.33-0.66 0.66-1.32 1-2-0.66-0.66-1.32-1.32-2-2zm2 4 1 3v-3h-1zm312 18c-1.17 1.17-2.33 2.34-3.48 3.52-1.56 1.53-3.2 2.9-4.89 4.29-2.53 2.14-4.73 4.36-6.88 6.88-9.13 10.7-19.2 19.8-31 27.4-2.92 1.78-2.92 1.78-4.74 4.9v3c4.38 2.47 8.06 2.64 13 2 6.03-1.82 10.4-5.84 14.9-10.1 1.73-1.59 3.46-2.98 5.35-4.38 3.69-3.44 5.47-7.11 7.75-11.6 0.744-1.35 1.49-2.7 2.24-4.05 0.816-1.48 1.63-2.97 2.45-4.45 0.589-1.05 0.589-1.05 1.19-2.12 2.7-5.01 4.16-9.78 5.12-15.4h-1zm-134 52c0.66 0.66 1.32 1.32 2 2 0.33-0.66 0.66-1.32 1-2h-3zm-212 19v1h15v-1h-15zm501 17c0.33 0.66 0.66 1.32 1 2 0.33-0.66 0.66-1.32 1-2h-2z" fill="#79B4D4"/>
<path transform="translate(806,1009)" d="m0 0h4c0.895 9.71 1.24 19.4 1.25 29.1 0.00167 0.742 0.00334 1.48 0.00507 2.25 0.00159 12-0.593 23.9-1.63 35.8-0.0631 0.742-0.126 1.48-0.191 2.25-1.73 19.9-1.73 19.9-4.43 22.6-0.144 1.07-0.289 2.14-0.438 3.25-0.562 3.75-0.562 3.75-1.62 6.31-1.13 2.5-1.13 2.5-0.938 5.62v2.81c-0.66 0.66-1.32 1.32-2 2-0.431 2.26-0.431 2.26-0.562 4.88-0.0748 0.986-0.15 1.97-0.227 2.99-0.0696 1.04-0.139 2.07-0.211 3.14-1.12 16.1-1.12 16.1-3 22-0.66 0.33-1.32 0.66-2 1-0.395 2.12-0.395 2.12-0.5 4.62-0.36 4.4-0.996 8.22-2.5 12.4-0.66 0.33-1.32 0.66-2 1-0.337 4.67-0.337 4.67 1.11 8.97 0.887 2.03 0.887 2.03 0.312 4.13-0.551 1.03-0.551 1.03-1.11 2.08-0.354 0.695-0.709 1.39-1.07 2.11-1.24 1.71-1.24 1.71-4.24 2.71 0.143 1.12 0.143 1.12 0.289 2.27 0.111 0.985 0.222 1.97 0.336 2.98 0.116 0.975 0.232 1.95 0.352 2.95 0.0251 2.99-0.292 4.35-1.98 6.8-1.52 0.959-1.52 0.959-3.06 1.94-3.15 1.75-3.15 1.75-3.69 4.69-0.0825 0.784-0.165 1.57-0.25 2.38-0.66 0.66-1.32 1.32-2 2-0.596 3.23-0.956 6.47-1.34 9.74-0.69 3.41-1.83 5.34-3.66 8.26-0.748 2.13-1.43 4.27-2.06 6.44-0.954 3.25-1.91 6.47-3 9.68-1.07 3.28-1.73 6.55-2.38 9.93-0.562 1.95-0.562 1.95-2.56 3.95-0.694 1.99-1.36 3.99-2 6-0.958 2.35-1.98 4.67-3 7h-2c-0.0825 0.619-0.165 1.24-0.25 1.88-0.75 2.12-0.75 2.12-2.62 3.19-0.701 0.309-1.4 0.619-2.12 0.938-2.97 2.41-3.98 5.01-5.25 8.56-0.356 0.971-0.712 1.94-1.08 2.94-0.961 2.47-0.961 2.47 0.328 4.5-1.27 2.39-2.59 4.69-4 7-0.851 1.54-0.851 1.54-1.72 3.11-5.56 9.99-11.8 19.4-18.3 28.9-1.32-0.66-2.64-1.32-4-2 0.33-0.66 0.66-1.32 1-2-0.33-0.99-0.66-1.98-1-3-0.268 0.639-0.536 1.28-0.812 1.94-1.19 2.06-1.19 2.06-4.19 3.06h-3c-1.34 0.303-2.67 0.638-4 1-1.33 0.333-2.67 0.667-4 1v2c0.66 0.33 1.32 0.66 2 1h-3c-0.247 0.639-0.495 1.28-0.75 1.94-1.25 2.06-1.25 2.06-3.38 2.81-0.619 0.0825-1.24 0.165-1.88 0.25v3h-3c-0.421-5.93 0.784-9.52 3.44-14.6 2.06-4.06 3.94-7.81 4.56-12.4-0.701 0.722-1.4 1.44-2.12 2.19-1.93 1.94-3.93 3.71-6.06 5.44-2.93 2.25-2.93 2.25-4.81 5.38h-2c-0.21 0.534-0.42 1.07-0.637 1.62-1.9 3.32-4.48 5.84-7.18 8.51-0.572 0.569-1.14 1.14-1.73 1.72-6.42 6.26-13.4 12.3-21.2 16.7-3.02 1.92-3.87 4.19-5.24 7.43 5.73 0.92 10.3 0.909 16 0 1.33-0.19 2.67-0.377 4-0.562 0.99-0.144 1.98-0.289 3-0.438 0.858 3.36 1.25 5.36-0.0234 8.62-2.8 3.37-5 3.27-9.29 3.69-1.3 0.141-2.59 0.281-3.93 0.426-6.11 0.425-10.5 0.176-16.3-1.74-9.66-2.89-22.7-4.23-32.4-1-2.41 0.122-4.83 0.175-7.25 0.188-1.28 0.0142-2.57 0.0284-3.89 0.043-4.01-0.239-7.07-0.989-10.9-2.23v3c-5.86 1.3-12 1.53-18 1-0.66-0.66-1.32-1.32-2-2-2.43-0.462-2.43-0.462-5.12-0.625-0.91-0.0748-1.82-0.15-2.76-0.227-0.699-0.049-1.4-0.098-2.12-0.148-0.495-1.49-0.495-1.49-1-3 0.99-0.66 1.98-1.32 3-2-0.759-0.0184-1.52-0.0368-2.3-0.0557-7.18-0.176-14.4-0.366-21.5-0.571-3.69-0.105-7.38-0.204-11.1-0.292-3.57-0.0851-7.13-0.184-10.7-0.292-2.01-0.0574-4.02-0.101-6.04-0.144-6.8-0.218-12.2-0.763-18.4-3.64-1.67-0.712-1.67-0.712-3.38-1.44l-3.62-1.56c-0.692-0.251-1.38-0.503-2.1-0.762-11.7-4.33-22.8-10.4-31.8-19.2-2.14-2.15-2.14-2.15-4.88-4.12-1.1-0.953-1.1-0.953-2.23-1.93v-3c-1.21-0.34-1.21-0.34-2.44-0.688-0.846-0.433-1.69-0.866-2.56-1.31-0.812-2.62-0.812-2.62-1-5 14.1-4.71 36.6 2.63 50.1 7.38 2.6 0.842 5.22 1.21 7.92 1.62 1.09 0.33 2.19 0.66 3.31 1 25.7 6.96 56.4 1.19 81.7-5 1.11-0.267 1.11-0.267 2.24-0.54 8.08-1.97 15.9-4.48 23.7-7.36 2.6-0.916 5.12-1.66 7.8-2.29 3.42-0.64 3.42-0.64 6.31-2.81-0.99-0.33-1.98-0.66-3-1 3.59-5.7 9.06-8.25 14.8-11.4 1.46-0.837 1.46-0.837 2.95-1.69 8.04-4.41 8.04-4.41 12.4-3.79 1.39 0.422 1.39 0.422 2.8 0.852-0.66 1.98-1.32 3.96-2 6 2.33-0.959 2.33-0.959 4-4 2-2 2-2 3.82-2.86 2.77-1.45 4.76-3.33 7.05-5.46 0.874-0.799 1.75-1.6 2.65-2.42 0.817-0.748 1.63-1.5 2.48-2.27 5.62-5 5.62-5 8-5 0.268-0.639 0.536-1.28 0.812-1.94 1.19-2.06 1.19-2.06 4.19-3.06 0.186-0.866 0.186-0.866 0.375-1.75 0.939-3.38 3.04-4.96 5.62-7.25 0.722-0.351 1.44-0.701 2.19-1.06 2.39-1.24 2.65-2.54 3.81-4.94 0.927-1.36 1.89-2.69 2.88-4 0.492-0.66 0.985-1.32 1.49-2 1.63-2 1.63-2 3.54-3.84 2.58-2.66 4.64-5.6 6.72-8.66 0.394-0.568 0.789-1.14 1.2-1.72 1.95-2.84 3.75-5.64 5.18-8.78h2c0.263-0.717 0.526-1.43 0.797-2.17 1.24-2.93 2.72-5.41 4.45-8.08 0.62-0.96 1.24-1.92 1.88-2.91 1.66-2.53 3.36-5.03 5.06-7.53 1.79-2.66 3.36-5.29 4.75-8.19 5.94-12.3 14.6-23.4 23.4-33.8 0.786-0.937 0.786-0.937 1.59-1.89 1.3-1.51 2.66-2.97 4.04-4.42h2c0.186-0.722 0.371-1.44 0.562-2.19 1.94-3.8 4.74-5.76 8.44-7.81h2c0.28-0.581 0.559-1.16 0.848-1.76 1.09-2.12 2.29-4.06 3.59-6.05 5.74-9.1 8.81-19.8 12.5-29.9 0.335-0.904 0.669-1.81 1.01-2.74 4.29-11.7 7.62-23.1 9.3-35.5 0.259-1.74 0.259-1.74 0.523-3.51 1.01-7.21 1.3-14.2 1.21-21.4 0.0239-3.91 0.558-7.35 1.33-11.2 1.83-9.66 2.72-19.4 3.6-29.2 0.114-1.2 0.227-2.41 0.344-3.65 0.0961-1.08 0.192-2.16 0.291-3.27 0.432-2.69 1.08-4.5 2.45-6.83zm-53 265c-0.33 0.99-0.66 1.98-1 3h2c0.33-0.99 0.66-1.98 1-3h-2zm-4 5 1 2zm-188 97c0.66 0.66 1.32 1.32 2 2 0.33-0.66 0.66-1.32 1-2h-3z" fill="#A0C3D7"/>
<path transform="translate(602 258)" d="m0 0c0.83 0.0213 1.66 0.0427 2.51 0.0646 4.92 0.133 9.82 0.319 14.7 0.56 1.01 0.0483 2.03 0.0965 3.07 0.146 5.08 0.357 8.47 1.18 12.7 4.17 0.873 0.594 1.75 1.19 2.64 1.8 7.66 5.68 7.66 5.68 9.54 9.89 0.66 0.33 1.32 0.66 2 1 12.9 23.5 3.65 53.1-0.754 78-1.34 7.6-2.59 15.2-3.71 22.8-1.51 10.3-3.28 20.5-5.1 30.7-2.69 15.2-5.33 30.4-7.38 45.8-1.58 11.6-3.43 23.1-5.88 34.6-0.267 1.27-0.534 2.54-0.809 3.86-0.24 1.1-0.48 2.19-0.727 3.32-0.23 1.33-0.444 2.66-0.648 3.99-0.232 1.44-0.232 1.44-0.468 2.92-1.07 8.67 0.478 14.6 4.03 22.5 0.461 1.08 0.922 2.17 1.4 3.29 0.913 2.15 1.84 4.29 2.77 6.43 1.64 3.76 3.19 7.54 4.71 11.3 0.459 1.14 0.918 2.28 1.39 3.46 1.38 3.65 2.47 7.34 3.52 11.1 0.838 2.59 2.22 4.7 3.65 7 0.459 1.64 0.915 3.28 1.34 4.93 1.13 3.56 2.79 6.87 4.36 10.2 1.56 3.4 2.95 6.85 4.31 10.3 0.686 1.74 1.39 3.47 2.12 5.2 0.367 0.88 0.735 1.76 1.11 2.67 0.335 0.791 0.67 1.58 1.02 2.4 0.734 2.23 0.734 2.23 0.734 6.23 0.99 0.66 1.98 1.32 3 2 1.06 1.81 1.06 1.81 2.02 4.01 0.36 0.814 0.721 1.63 1.09 2.47 0.377 0.875 0.754 1.75 1.14 2.65 0.396 0.9 0.792 1.8 1.2 2.73 1.19 2.71 2.37 5.43 3.55 8.15 0.924 2.12 1.85 4.24 2.77 6.36 0.568 1.3 1.14 2.6 1.7 3.91 2.21 5.06 4.53 10.1 6.89 15.1 2.55 5.42 4.95 10.9 7.33 16.4 1.11 2.56 2.21 5.09 3.5 7.56 1.08 2.29 0.947 4.22 0.809 6.71 0.99 0.33 1.98 0.66 3 1 0.922 1.76 0.922 1.76 1.75 4.12 1.66 4.44 3.53 8.72 5.56 13 2.58 5.47 5.08 11 7.5 16.5 0.29 0.663 0.58 1.33 0.878 2.01 1.49 3.43 2.94 6.88 4.31 10.4h-2c-0.33-0.66-0.66-1.32-1-2-0.66 0.99-1.32 1.98-2 3-3.82-3.49-6.07-6.6-8.19-11.3-0.283-0.624-0.565-1.25-0.856-1.89-3.33-7.45-6.42-15-9.49-22.6-0.609-1.49-0.609-1.49-1.23-3-0.359-0.884-0.717-1.77-1.09-2.68-1.2-2.65-2.63-5.05-4.15-7.53-0.993-2.17-1.95-4.36-2.88-6.56-0.258-0.609-0.517-1.22-0.783-1.85-1.26-2.97-2.49-5.94-3.7-8.93-2.57-6.36-2.57-6.36-5.77-12.4-3.51-6.08-5.29-12.4-6.88-19.2h-2c-0.346-0.874-0.346-0.874-0.699-1.77-4.77-12-9.73-23.9-15.4-35.5-0.361-0.751-0.722-1.5-1.09-2.28-0.716-1.49-1.44-2.97-2.17-4.45-1.93-4.01-3.2-7.53-3.68-12h-2c-2.48-6.43-2.48-6.43-5-13 1.36 8.02 4.47 14.7 8 22 1.95 4.07 3.42 7.38 3 12h-2c-0.193-0.638-0.387-1.28-0.586-1.93-0.26-0.826-0.521-1.65-0.789-2.5-0.255-0.824-0.51-1.65-0.773-2.5-0.66-2.24-0.66-2.24-2.85-3.07-0.907-2.22-1.73-4.48-2.5-6.75-1.86-7.68-1.86-7.68-6.5-13.2 0.445 1.12 0.889 2.24 1.35 3.39 0.572 1.47 1.14 2.95 1.71 4.42 0.442 1.11 0.442 1.11 0.893 2.24 2.16 5.61 2.16 5.61 1.04 8.95-4.08-9.1-7.93-18.2-11.5-27.6-2.02-5.26-4.12-10.5-6.31-15.7-0.808-1.92-1.6-3.84-2.38-5.77-4.12-10.1-8.72-19.9-14.8-29-10.4-2.64-21.6-2.29-32.3-2.19-1.58 0.0103-3.16 0.0204-4.74 0.0305-3.92 0.0296-7.84 0.0772-11.8 0.13-2.07 0.0252-4.14 0.0411-6.21 0.0531-3.52 0.0268-7.03 0.087-10.5 0.161-1.51 0.00834-1.51 0.00834-3.05 0.0168-7.64 0.234-15.7 2-21.2 7.66-5.48 7.3-8.63 16.8-12.2 25.1h-3c0.66 0.33 1.32 0.66 2 1-2.08 6.5-4.45 12.9-7 19.2-0.343 0.863-0.686 1.73-1.04 2.62-1.41 3.51-2.83 6.95-4.53 10.3-2.02 4.04-3.48 8.26-5 12.5-1.78 4.86-3.85 9.53-6.01 14.2-1.6 3.55-3.11 7.12-4.61 10.7-0.275 0.66-0.55 1.32-0.833 2-1.13 2.73-2.26 5.45-3.39 8.18-5.54 13.4-5.54 13.4-8.63 19.3-2.49 5.01-4.53 10.2-6.68 15.4-1.85 4.38-3.73 8.48-6.27 12.5-0.711 1.98-1.39 3.98-2 6h-2v3c-0.66 0.33-1.32 0.66-2 1-1.06 2.32-2.04 4.64-3 7-2.49 5.76-5.15 11.4-8 17-0.578 1.16-1.15 2.31-1.75 3.5-0.619 1.24-0.619 1.24-1.25 2.5-1.15-3.46-1-6.37-1-10-1.32 0.33-2.64 0.66-4 1-0.333-1.33-0.667-2.67-1-4-0.227-0.66-0.454-1.32-0.688-2-0.405-2.59 0.353-3.8 1.69-6h3c-0.299-0.862-0.299-0.862-0.605-1.74-0.488-2.79 0.0416-3.88 1.28-6.4 0.376-0.79 0.752-1.58 1.14-2.39 0.391-0.814 0.782-1.63 1.19-2.47 0.69-1.57 1.37-3.15 2.04-4.73 0.52-1.22 0.52-1.22 1.05-2.46 0.541-1.27 0.541-1.27 1.09-2.56 0.793-1.85 1.59-3.71 2.38-5.56 0.402-0.941 0.805-1.88 1.22-2.85 1.18-2.76 2.37-5.52 3.55-8.27 0.383-0.891 0.767-1.78 1.16-2.7 0.712-1.66 1.43-3.31 2.14-4.97 1.95-4.54 3.86-9.1 5.72-13.7 4.58-11.2 9.43-22.3 14.3-33.4 4.18-9.51 8.28-19 12.1-28.7 2.01-5.09 4.13-10.1 6.25-15.2 0.286-0.68 0.572-1.36 0.867-2.06 0.642-1.53 1.29-3.05 1.93-4.58 0.681-1.62 1.36-3.24 2.03-4.87 1.74-4.18 3.54-8.31 5.46-12.4 0.37-0.81 0.739-1.62 1.12-2.45 0.694-1.52 1.41-3.02 2.15-4.52 6.25-13.9 1.24-30.8-1.37-45.1-0.403-2.26-0.805-4.51-1.21-6.77-0.861-4.84-1.73-9.68-2.6-14.5-1.44-8.04-2.85-16.1-4.25-24.1-0.18-1.03-0.18-1.03-0.364-2.09-0.483-2.77-0.966-5.55-1.45-8.32-0.805-4.62-1.61-9.25-2.42-13.9-2.21-12.6-4.41-25.3-6.59-37.9-0.2-1.16-0.401-2.32-0.607-3.52-1.63-9.47-3.23-19-4.79-28.4-0.575-3.48-1.17-6.95-1.79-10.4-3.12-17.6-5.95-35.4 4.88-51 5.96-8.22 13.6-13.6 23.6-15.5 3.97-0.582 7.92-0.835 11.9-1.02 0.859-0.0411 1.72-0.0822 2.6-0.125 12.8-0.573 25.7-0.77 38.6-0.977 1.01-0.0168 1.01-0.0168 2.05-0.0339 18-0.298 36-0.441 54 0.0339zm-120 18.2c-7.58 8.14-11.4 18.9-11.3 29.8 0.174 3.85 0.874 7.49 1.68 11.3 2 9.91 3.8 19.9 5.54 29.8 0.447 2.55 0.897 5.1 1.35 7.65 1.64 9.32 3.14 18.6 4.52 28 0.898 6.08 1.9 12.1 3.03 18.2 0.17 0.918 0.339 1.84 0.514 2.78 0.492 2.66 0.988 5.31 1.49 7.97 0.134 0.716 0.268 1.43 0.406 2.17 0.364 1.94 0.729 3.89 1.09 5.83 0.362 1.94 0.362 1.94 0.73 3.91 0.532 2.84 1.08 5.68 1.63 8.52 2.81 14.7 4.94 29.5 7.03 44.3 0.124 0.871 0.249 1.74 0.377 2.64 0.233 1.63 0.463 3.27 0.69 4.91 0.758 5.3 1.81 10.5 3.04 15.7 7.69-0.427 14.1-2.17 21.3-4.94 0.962-0.36 1.92-0.721 2.92-1.09 4.28-1.61 8.53-3.27 12.8-4.97v-2c-1.18-0.0735-1.18-0.0735-2.38-0.148-5.78-0.411-11.2-0.796-16.6-2.85-0.33-0.66-0.66-1.32-1-2h-2c-1.01-4.19-1.16-8.25-1.17-12.5-0.00499-1.08-0.00499-1.08-0.0101-2.19-0.00505-1.52-0.00741-3.05-0.00725-4.57-0.00217-2.3-0.0203-4.59-0.0393-6.89-0.0945-24-0.0945-24 7.22-31.8 5.73-3.92 11.4-5.09 18.2-5.32 1.85-0.0628 1.85-0.0628 3.73-0.127 1.29-0.0393 2.57-0.0786 3.9-0.119 1.25-0.0432 2.5-0.0864 3.78-0.131 3.78-0.123 7.56-0.222 11.3-0.307 1.28-0.0292 2.55-0.0583 3.87-0.0884 1.23-0.016 2.46-0.0319 3.72-0.0483 1.65-0.0245 1.65-0.0245 3.33-0.0496 5.93 0.359 10.9 2.43 15.5 6.19 0.516 0.66 1.03 1.32 1.56 2 0.503 0.606 1.01 1.21 1.52 1.84 4.25 6.24 3.76 15.1 3.67 22.3-0.00283 0.918-0.00566 1.84-0.00858 2.78-0.0111 2.89-0.0362 5.79-0.0617 8.68-0.01 1.98-0.0192 3.96-0.0273 5.93-0.0219 4.81-0.0563 9.63-0.0977 14.4-3.49 1.88-6.15 2.33-10.1 2.56-4.09 0.145-4.09 0.145-7.88 1.44-2.2 0.23-4.41 0.411-6.62 0.562-1.19 0.0838-2.38 0.168-3.6 0.254-0.915 0.0606-1.83 0.121-2.77 0.184v1c0.87 0.158 0.87 0.158 1.76 0.32 2.65 0.487 5.29 0.99 7.93 1.49 1.37 0.248 1.37 0.248 2.76 0.502 4.82 0.93 8.41 1.94 12.5 4.69 2.12 0.794 4.27 1.52 6.44 2.19 1.09 0.344 2.18 0.688 3.31 1.04 3.23 0.763 5.96 0.826 9.25 0.77 2.99-10.5 4.47-21.1 6-31.8 1.53-10.7 3.14-21.4 5.35-32 0.827-4.05 1.48-8.1 2.09-12.2 2.03-13.2 4.37-26.4 6.75-39.6 2.94-16.3 5.7-32.5 8.26-48.9 0.35-2.24 0.704-4.47 1.06-6.71 4.03-22.7 4.03-22.7-2.45-44.1-1.97-2.69-1.97-2.69-4.19-4.81-1.88-1.88-1.88-1.88-2.69-3.94-1.9-3.1-4.83-3.97-8.19-4.94-3.88-0.519-7.75-0.602-11.7-0.68-1.8-0.0495-1.8-0.0495-3.64-0.1-17.1-0.409-34.1-0.371-51.2-0.351-4.92 0.00575-9.84 0.00237-14.8-0.00357-3.85-0.00363-7.7-0.00245-11.6 1.28e-4 -1.81 6.58e-4 -3.63-1.2e-4 -5.44-0.00248-23.1-1.11-23.1-1.11-43.6 7.67zm137 250 1 2zm1 4c2.58 7.89 5.13 15.6 9 23 1.04-3.15 1.01-4.76-0.328-7.79-0.306-0.695-0.611-1.39-0.926-2.11-0.329-0.716-0.657-1.43-0.996-2.17-0.313-0.72-0.626-1.44-0.949-2.18-1.58-3.53-2.92-6.11-5.8-8.76zm10 24c0.449 1.65 0.909 3.29 1.38 4.94 0.255 0.917 0.51 1.83 0.773 2.78 0.618 2.45 0.618 2.45 2.85 3.29-0.607-4.13-2.04-7.33-4-11h-1zm1 13 1 2zm25 32 1 2zm5 12 1 2zm10 23 1 3zm26 57 1 2zm-273 7c-0.99 0.66-1.98 1.32-3 2h4c-0.33-0.66-0.66-1.32-1-2zm1 2 1 3zm281 13c0.33 1.32 0.66 2.64 1 4 0.66-0.33 1.32-0.66 2-1-0.99-0.99-1.98-1.98-3-3zm3 9c0.66 0.66 1.32 1.32 2 2v-2h-2zm2 2c0.342 2.97 0.342 2.97 1 6 0.66 0.33 1.32 0.66 2 1-0.342-2.97-0.342-2.97-1-6-0.66-0.33-1.32-0.66-2-1z" fill="#93B3C6"/>
<path transform="translate(570 417)" d="m0 0c1.23-0.0154 2.46-0.0308 3.73-0.0466 1.65-0.0234 1.65-0.0234 3.33-0.0474 6.32 0.371 11.2 2.62 16 6.68 0.681 0.825 1.36 1.65 2.06 2.5 0.514 0.616 1.03 1.23 1.56 1.87 4.17 6.16 3.77 15 3.81 22.2 0.00903 0.911 0.0181 1.82 0.0274 2.76 0.0144 1.9 0.0234 3.81 0.0271 5.71 0.012 2.92 0.0614 5.84 0.112 8.76 0.00945 1.86 0.0167 3.72 0.0215 5.58 0.0195 0.872 0.0391 1.74 0.0592 2.64-0.0171 2.27-0.0762 4.28-0.618 6.49-3.52 3.06-6.61 3.41-11.2 3.62-4.06 0.104-4.06 0.104-7.81 1.38-10.2 0.62-21.2 0.258-31-3-2.08 0.308-2.08 0.308-4.19 0.938-1.26 0.351-2.52 0.701-3.81 1.06 0.66 0.99 1.32 1.98 2 3-1.49 0.495-1.49 0.495-3 1v-3c-0.75 0.0464-1.5 0.0928-2.27 0.141-6.91 0.244-14 0.153-19.7-4.14-1.93-4.55-2.29-8.76-2.27-13.6-0.00191-0.72-0.00383-1.44-0.0058-2.18-0.00136-1.52 0.00229-3.04 0.0107-4.56 0.0106-2.29 1.23e-4 -4.58-0.0127-6.87-0.0264-24-0.0264-24 8.27-32.8 5.7-3.96 11.4-5.09 18.2-5.32 1.85-0.0628 1.85-0.0628 3.73-0.127 1.29-0.0393 2.57-0.0786 3.9-0.119 1.87-0.0648 1.87-0.0648 3.78-0.131 5.07-0.165 10.1-0.28 15.2-0.393z" fill="#77B1D1"/>
<path transform="translate(367 1394)" d="m0 0c1.86-0.0193 1.86-0.0193 3.76-0.0391 1.69-0.00193 1.69-0.00193 3.42-0.00391 0.954-0.00411 1.91-0.00822 2.89-0.0125 2.86 0.265 5.02 1.05 7.62 2.24-0.33 2.31-0.66 4.62-1 7 2.31 0.66 4.62 1.32 7 2 0.33 1.65 0.66 3.3 1 5 1.03-0.0174 1.03-0.0174 2.08-0.0352 0.901-0.00902 1.8-0.018 2.73-0.0273 1.34-0.0174 1.34-0.0174 2.71-0.0352 2.48 0.0977 2.48 0.0977 5.48 1.1 0.33-0.33 0.66-0.66 1-1 1.85-0.0723 3.71-0.0838 5.56-0.0625 1.01 0.00902 2.02 0.018 3.07 0.0273 0.782 0.0116 1.56 0.0232 2.37 0.0352-0.33 0.99-0.66 1.98-1 3 3.3 0.33 6.6 0.66 10 1v3c-23.6 0.0688-47.2-0.107-70.9-0.404-2.74-0.0344-5.48-0.0681-8.22-0.102-23.3-0.287-46.6-0.599-69.9-0.995-1.11-0.0179-2.22-0.0358-3.36-0.0542-11.3-0.185-22.6-0.457-34-1.12-6.57-0.374-13.1-0.374-19.7-0.268-2.9-0.0453-5.56-0.208-8.42-0.537-6.23-0.642-12.4-0.817-18.7-0.99-2.52-0.0785-5.05-0.157-7.57-0.236-3.94-0.12-7.88-0.237-11.8-0.348-3.83-0.11-7.66-0.231-11.5-0.353-1.17-0.0303-2.34-0.0606-3.54-0.0918-5.68-0.188-10.9-0.672-16.4-2.05-3.22-0.717-6.4-0.783-9.68-0.865-0.675-0.0194-1.35-0.0387-2.05-0.0587-2.12-0.0589-4.24-0.106-6.36-0.152-1.45-0.0383-2.9-0.0773-4.36-0.117-3.53-0.0951-7.05-0.179-10.6-0.258-0.33-0.66-0.66-1.32-1-2-0.66-0.66-1.32-1.32-2-2 5.24-1.7 9.99-2.38 15.5-2.59 1.23-0.0555 1.23-0.0555 2.47-0.112 11.4-0.486 22.9-0.65 34.3-0.846 2.95-0.0519 5.9-0.109 8.85-0.167 1.33-0.0204 1.33-0.0204 2.69-0.0411 4.81-0.0957 9.41-0.482 14.2-1.24 1.83-0.0421 3.67-0.0412 5.5 0 6.55 0.0537 13.1-0.165 19.6-0.438 1.02-0.0393 2.04-0.0786 3.09-0.119 0.962-0.0419 1.92-0.0838 2.92-0.127 0.865-0.0367 1.73-0.0733 2.62-0.111 2.41-0.134 2.41-0.134 5.25-1.21 4.66-0.356 9.33-0.432 14-0.562 0.705-0.0212 1.41-0.0424 2.13-0.0642 19.9-0.589 39.9-0.466 59.9-0.373v-1c48.5-1.09 48.5-1.09 68.3-1.19zm-18.3 1.19v1h15v-1h-15z" fill="#7FA4B9"/>
<path transform="translate(583,259)" d="m0 0c4.94-0.0249 9.89-0.043 14.8-0.0549 1.68-0.00499 3.36-0.0118 5.03-0.0205 25.5-0.129 25.5-0.129 31.9 4.39 0.873 0.594 1.75 1.19 2.64 1.8 7.66 5.68 7.66 5.68 9.54 9.89 0.66 0.33 1.32 0.66 2 1 12.9 23.5 3.65 53.1-0.754 78-1.34 7.6-2.59 15.2-3.71 22.8-1.51 10.3-3.28 20.5-5.1 30.7-2.69 15.2-5.33 30.4-7.38 45.8-1.58 11.6-3.41 23.1-5.88 34.5-1.79 8.46-2.8 16.6-3.18 25.2h-3c-0.144-1.09-0.289-2.19-0.438-3.31-0.445-3.62-0.445-3.62-1.56-6.69-0.99-0.33-1.98-0.66-3-1-0.961-6.06-0.97-11.5-0.375-17.6 0.0892-0.941 0.178-1.88 0.27-2.85 1.23-12 3.35-23.8 5.43-35.7 0.668-3.8 1.32-7.61 1.97-11.4 1.03-6.04 2.08-12.1 3.13-18.1 0.536-3.09 1.07-6.18 1.6-9.27 1.36-7.88 2.73-15.7 4.16-23.6 2.94-16.3 5.71-32.6 8.26-48.9 0.35-2.24 0.704-4.47 1.06-6.71 4.35-23.8 4.35-23.8-3.51-45.8-0.866-0.866-1.73-1.73-2.62-2.62-2.38-2.38-2.38-2.38-3.38-5.38-1.62-1.13-1.62-1.13-3.62-2-0.721-0.335-1.44-0.67-2.18-1.02-0.723-0.325-1.45-0.65-2.19-0.984-0.63-0.304-1.26-0.608-1.91-0.922-3.47-1.62-6.26-2.63-10.1-2.08-0.66 0.66-1.32 1.32-2 2-2.62 0.125-2.62 0.125-5 0v-2c-1.2 0.206-2.39 0.413-3.62 0.625-3.96 0.512-6.63-0.146-10.4-1.62h-3c-0.33-0.99-0.66-1.98-1-3-2.02-0.733-2.02-0.733-4-1 0.33-0.99 0.66-1.98 1-3z" fill="#94B4C6"/>
<path transform="translate(810,1395)" d="m0 0c5.07-0.025 10.1-0.043 15.2-0.0549 1.72-0.00499 3.44-0.0118 5.16-0.0205 16.8-0.083 16.8-0.083 25.2 0.828 4.54 0.456 9.09 0.54 13.6 0.685 7.71 0.263 15.4 0.58 23.1 1.04 24.6 1.43 49.1 1.91 73.7 2.19 11.9 0.136 23.8 0.281 35.7 0.744 0.887 0.0292 1.77 0.0584 2.69 0.0885 4.29 0.192 7.75 0.544 11.7 2.51v3c-4.34 1.59-8.41 2.45-13 3-1.07 0.165-2.14 0.33-3.24 0.5-6.08 0.76-12.2 0.755-18.3 0.888-14.7 0.325-14.7 0.325-29.4 1.61-10.4 1.25-20.9 1.42-31.4 1.66-1.39 0.0317-2.77 0.0636-4.16 0.0957-0.694 0.0158-1.39 0.0315-2.1 0.0477-5.07 0.129-10.1 0.413-15.2 0.734-6.39 0.393-12.7 0.521-19.1 0.457-0.828-0.00784-1.66-0.0157-2.51-0.0238-3.38-0.0363-6.75-0.0789-10.1-0.14-12.4-0.376-12.4-0.376-24.4 2.42-2.31 0.861-4.59 1.31-7.01 1.75v-3c-1.24-0.0606-2.48-0.121-3.76-0.184-1.64-0.0844-3.28-0.169-4.93-0.254-0.817-0.0393-1.63-0.0786-2.47-0.119-4.05-0.213-7.87-0.568-11.8-1.44-2-0.0377-4-0.0465-6 0-0.227-0.639-0.454-1.28-0.688-1.94-1.17-2.33-1.17-2.33-3.94-2.81-0.784-0.0825-1.57-0.165-2.38-0.25-0.33-2.64-0.66-5.28-1-8 3-2 3-2 5-2 0.33-0.33 0.66-0.66 1-1 2-0.0408 4-0.0425 6 0-0.33-0.99-0.66-1.98-1-3zm40 17c0.33 0.66 0.66 1.32 1 2 0.33-0.66 0.66-1.32 1-2h-2z" fill="#7BB4D3"/>
<path transform="translate(806,1009)" d="m0 0h4c0.895 9.71 1.24 19.4 1.25 29.1 0.00167 0.742 0.00334 1.48 0.00507 2.25 0.00159 12-0.593 23.9-1.63 35.8-0.0631 0.742-0.126 1.48-0.191 2.25-1.73 19.9-1.73 19.9-4.43 22.6-0.144 1.07-0.289 2.14-0.438 3.25-0.562 3.75-0.562 3.75-1.62 6.31-1.13 2.5-1.13 2.5-0.938 5.62v2.81c-0.66 0.66-1.32 1.32-2 2-0.431 2.26-0.431 2.26-0.562 4.88-0.0748 0.986-0.15 1.97-0.227 2.99-0.0696 1.04-0.139 2.07-0.211 3.14-1.12 16.1-1.12 16.1-3 22-0.66 0.33-1.32 0.66-2 1-0.395 2.12-0.395 2.12-0.5 4.62-0.36 4.4-0.996 8.22-2.5 12.4-0.66 0.33-1.32 0.66-2 1-0.337 4.67-0.337 4.67 1.11 8.97 0.887 2.03 0.887 2.03 0.312 4.13-0.367 0.687-0.735 1.37-1.11 2.08-0.354 0.695-0.709 1.39-1.07 2.11-1.24 1.71-1.24 1.71-4.24 2.71 0.143 1.12 0.143 1.12 0.289 2.27 0.111 0.985 0.222 1.97 0.336 2.98 0.116 0.975 0.232 1.95 0.352 2.95 0.0251 2.99-0.292 4.35-1.98 6.8-1.01 0.639-2.02 1.28-3.06 1.94-3.15 1.75-3.15 1.75-3.69 4.69-0.0825 0.784-0.165 1.57-0.25 2.38-0.66 0.66-1.32 1.32-2 2-0.596 3.23-0.956 6.47-1.34 9.74-0.69 3.41-1.83 5.34-3.66 8.26-0.748 2.13-1.43 4.27-2.06 6.44-0.954 3.25-1.91 6.47-3 9.68-1.07 3.28-1.73 6.55-2.38 9.93-0.562 1.95-0.562 1.95-2.56 3.95-0.694 1.99-1.36 3.99-2 6-0.958 2.35-1.98 4.67-3 7h-2c-0.0825 0.619-0.165 1.24-0.25 1.88-0.75 2.12-0.75 2.12-2.62 3.19-0.701 0.309-1.4 0.619-2.12 0.938-2.97 2.41-3.98 5.01-5.25 8.56-0.356 0.971-0.712 1.94-1.08 2.94-0.961 2.47-0.961 2.47 0.328 4.5-2.04 3.94-4.23 7.53-7 11v-2h-2v-5c-0.99-0.33-1.98-0.66-3-1 0.141-1.63 0.288-3.25 0.438-4.88 0.0812-0.905 0.162-1.81 0.246-2.74 0.316-2.38 0.316-2.38 1.32-4.38 1.98-0.727 3.98-1.4 6-2v-4c0.147-1.59 0.314-3.17 0.5-4.75 0.0928-0.799 0.186-1.6 0.281-2.42 0.0722-0.603 0.144-1.21 0.219-1.83 5.75-2 5.75-2 8-2-0.0928-1.08-0.0928-1.08-0.188-2.19 0.188-2.81 0.188-2.81 1.75-5.25 1.85-3.31 1.22-4.94 0.438-8.56 0.33-0.99 0.66-1.98 1-3h6c-0.247-0.959-0.247-0.959-0.5-1.94-0.659-4.04-0.58-7.98-0.5-12.1 1.32-0.33 2.64-0.66 4-1 0.33-2.64 0.66-5.28 1-8 1.32-0.33 2.64-0.66 4-1 0.124-0.577 0.247-1.15 0.375-1.75 0.625-2.25 0.625-2.25 1.69-4.31 1.16-2.03 1.16-2.03 0.938-4.94h3v-3c0.959-0.433 0.959-0.433 1.94-0.875 2.21-0.953 2.21-0.953 3.06-3.12 0.197-1.73 0.344-3.46 0.465-5.19 0.078-1.03 0.156-2.05 0.236-3.11 0.158-2.18 0.311-4.35 0.461-6.53 0.0793-1.03 0.159-2.05 0.24-3.11 0.067-0.946 0.134-1.89 0.203-2.87 0.13-0.724 0.261-1.45 0.395-2.19 0.66-0.33 1.32-0.66 2-1 2-3.18 2.5-6.31 3-10h3c0.33-5.94 0.66-11.9 1-18-0.66-0.33-1.32-0.66-2-1-0.144-0.66-0.289-1.32-0.438-2-0.186-0.66-0.371-1.32-0.562-2-0.99-0.33-1.98-0.66-3-1-0.33-0.66-0.66-1.32-1-2-1.98 1.65-3.96 3.3-6 5 0.29-0.571 0.58-1.14 0.879-1.73 1.07-2.17 2.08-4.36 3.06-6.58 0.318-0.718 0.637-1.44 0.965-2.18 0.362-0.829 0.724-1.66 1.1-2.51 0.478-1.09 0.956-2.17 1.45-3.29 1.64-3.85 3.05-7.76 4.43-11.7 0.257-0.733 0.514-1.47 0.778-2.22 2.53-7.23 4.95-14.5 7.35-21.8 0.33-0.929 0.66-1.86 1-2.82 1.71-5.44 2.32-11 3.12-16.7 0.182-1.19 0.364-2.38 0.551-3.61 1.06-7.33 1.42-14.4 1.31-21.8 0.0184-3.91 0.554-7.33 1.33-11.2 1.83-9.66 2.72-19.4 3.6-29.2 0.171-1.81 0.171-1.81 0.344-3.65 0.0961-1.08 0.192-2.16 0.291-3.27 0.432-2.69 1.08-4.5 2.45-6.83zm-53 265c-0.33 0.99-0.66 1.98-1 3h2c0.33-0.99 0.66-1.98 1-3h-2zm-4 5 1 2z" fill="#73AAC8"/>
<path transform="translate(614,487)" d="m0 0h1c-0.0116 0.831-0.0232 1.66-0.0352 2.52-0.00902 1.09-0.018 2.17-0.0273 3.29-0.0116 1.08-0.0232 2.16-0.0352 3.27-0.0386 2.98-0.0386 2.98 1.1 5.92 0.66 0.454 1.32 0.908 2 1.38 2 1.62 2 1.62 2.81 4.12 0.188 2.5 0.188 2.5-0.812 5.5h3c14.6 33.6 14.6 33.6 18.4 47.1 0.823 2.55 2.21 4.63 3.61 6.9 0.459 1.64 0.915 3.28 1.34 4.93 1.13 3.56 2.79 6.87 4.36 10.2 1.56 3.4 2.95 6.85 4.31 10.3 0.686 1.74 1.39 3.47 2.12 5.2 0.551 1.32 0.551 1.32 1.11 2.67 0.503 1.19 0.503 1.19 1.02 2.4 0.734 2.23 0.734 2.23 0.734 6.23 1.49 0.99 1.49 0.99 3 2 1.06 1.81 1.06 1.81 2.02 4.01 0.541 1.22 0.541 1.22 1.09 2.47 0.377 0.875 0.754 1.75 1.14 2.65 0.396 0.9 0.792 1.8 1.2 2.73 1.19 2.71 2.37 5.43 3.55 8.15 0.924 2.12 1.85 4.24 2.77 6.36 0.568 1.3 1.14 2.6 1.7 3.91 2.21 5.06 4.53 10.1 6.89 15.1 2.55 5.42 4.95 10.9 7.33 16.4 1.11 2.56 2.21 5.09 3.5 7.56 1.08 2.29 0.947 4.22 0.809 6.71 0.99 0.33 1.98 0.66 3 1 0.922 1.76 0.922 1.76 1.75 4.12 1.66 4.44 3.53 8.72 5.56 13 2.58 5.47 5.08 11 7.5 16.5 0.29 0.663 0.58 1.33 0.878 2.01 1.49 3.43 2.94 6.88 4.31 10.4h-2c-0.33-0.66-0.66-1.32-1-2-0.66 0.99-1.32 1.98-2 3-3.82-3.49-6.07-6.6-8.19-11.3-0.283-0.624-0.565-1.25-0.856-1.89-3.33-7.45-6.42-15-9.49-22.6-0.406-0.991-0.812-1.98-1.23-3-0.359-0.884-0.717-1.77-1.09-2.68-1.2-2.65-2.63-5.05-4.15-7.53-0.993-2.17-1.95-4.36-2.88-6.56-0.258-0.609-0.517-1.22-0.783-1.85-1.26-2.97-2.49-5.94-3.7-8.93-2.57-6.36-2.57-6.36-5.77-12.4-3.51-6.08-5.29-12.4-6.88-19.2h-2c-0.231-0.583-0.461-1.17-0.699-1.77-4.77-12-9.73-23.9-15.4-35.5-0.361-0.751-0.722-1.5-1.09-2.28-0.716-1.49-1.44-2.97-2.17-4.45-1.93-4.01-3.2-7.53-3.68-12h-2c-1.65-4.29-3.3-8.58-5-13 1.36 8.02 4.47 14.7 8 22 1.95 4.07 3.42 7.38 3 12h-2c-0.193-0.638-0.387-1.28-0.586-1.93-0.26-0.826-0.521-1.65-0.789-2.5-0.255-0.824-0.51-1.65-0.773-2.5-0.66-2.24-0.66-2.24-2.85-3.07-0.907-2.22-1.73-4.48-2.5-6.75-1.86-7.68-1.86-7.68-6.5-13.2 0.445 1.12 0.889 2.24 1.35 3.39 0.572 1.47 1.14 2.95 1.71 4.42 0.295 0.738 0.589 1.48 0.893 2.24 2.16 5.61 2.16 5.61 1.04 8.95-4.08-9.1-7.93-18.2-11.5-27.6-2.02-5.26-4.12-10.5-6.31-15.7-0.808-1.92-1.6-3.84-2.38-5.77-4.12-10.1-8.72-19.9-14.8-29-2.59-0.545-5-0.924-7.62-1.19-1.06-0.123-1.06-0.123-2.14-0.248-1.74-0.2-3.49-0.384-5.23-0.564 0-3.9 0.337-4.78 2-8v-3h5c0.33-0.99 0.66-1.98 1-3 4.36-1.24 7.46-0.663 11.8 0.438 1.16 0.287 2.32 0.575 3.52 0.871 0.88 0.228 1.76 0.456 2.67 0.691 0.66-3.96 1.32-7.92 2-12zm5 40 1 2zm1 4c2.58 7.89 5.13 15.6 9 23 1.04-3.15 1.01-4.76-0.328-7.79-0.306-0.695-0.611-1.39-0.926-2.11-0.329-0.716-0.657-1.43-0.996-2.17-0.313-0.72-0.626-1.44-0.949-2.18-1.58-3.53-2.92-6.11-5.8-8.76zm10 24c0.449 1.65 0.909 3.29 1.38 4.94 0.255 0.917 0.51 1.83 0.773 2.78 0.618 2.45 0.618 2.45 2.85 3.29-0.607-4.13-2.04-7.33-4-11h-1zm1 13 1 2zm25 32 1 2zm5 12 1 2zm10 23 1 3zm26 57 1 2zm9 22c0.33 1.32 0.66 2.64 1 4 0.66-0.33 1.32-0.66 2-1-0.99-0.99-1.98-1.98-3-3zm3 9 2 2v-2h-2zm2 2c0.342 2.97 0.342 2.97 1 6 0.66 0.33 1.32 0.66 2 1-0.342-2.97-0.342-2.97-1-6-0.66-0.33-1.32-0.66-2-1z" fill="#93B5C8"/>
<path transform="translate(558,485)" d="m0 0c2.04 0.383 2.04 0.383 4.25 0.5 4.13 0.383 7.76 1.32 11.8 2.5 3.56 0.73 7.13 1.44 10.7 2.12 3.27 0.869 5.5 2.03 8.3 3.88 1.65 0.698 3.32 1.37 5 2-0.639 0.454-1.28 0.908-1.94 1.38-2.16 1.46-2.16 1.46-3.06 3.62-2.06 0.625-2.06 0.625-4 1-0.103 0.577-0.206 1.15-0.312 1.75-0.831 2.72-1.71 4.19-3.69 6.25-2.6 0.523-2.6 0.523-5.77 0.558-1.78 0.0354-1.78 0.0354-3.59 0.0715-1.28 0.00742-2.57 0.0148-3.89 0.0225-1.34 0.0248-2.67 0.0519-4.01 0.0814-4.96 0.105-9.92 0.171-14.9 0.229-4.18 0.0497-8.37 0.119-12.5 0.214-1.95 0.0369-3.89 0.0459-5.84 0.0542-9.1 0.201-17.5 1.64-24 8.44-0.513 0.87-1.03 1.74-1.55 2.64-0.955 1.56-1.91 3.13-2.88 4.69h-1v-10c-1.32-0.66-2.64-1.32-4-2v-8c1.65-0.33 3.3-0.66 5-1v-2h-2c0.33-1.65 0.66-3.3 1-5 1.25-0.0825 2.51-0.165 3.8-0.25 5.84-0.649 11-2.64 16.5-4.75 1.92-0.732 3.84-1.46 5.77-2.19 0.838-0.324 1.68-0.647 2.54-0.98 2.47-0.84 4.89-1.34 7.44-1.83l2-1c-0.66-0.99-1.32-1.98-2-3 12.4-3.04 12.4-3.04 17 0z" fill="#7AB4D4"/>
<path transform="translate(465,585)" d="m0 0c1.37 4.11-0.234 6.6-1.88 10.4-1.78 4.16-3.45 8.12-4.12 12.6 3.91 0 5.12-1.51 8-4-0.495-0.99-0.495-0.99-1-2-0.66 0.66-1.32 1.32-2 2l-1-4c0.99-0.33 1.98-0.66 3-1 0.33-2.97 0.66-5.94 1-9 2.38-0.625 2.38-0.625 5-1 0.66 0.66 1.32 1.32 2 2h-2v2c1.98 0.33 3.96 0.66 6 1-1.27 3.93-2.67 7.74-4.28 11.5-0.659 1.57-0.659 1.57-1.33 3.16-0.689 1.63-0.689 1.63-1.39 3.29-0.918 2.19-1.84 4.39-2.75 6.58-0.936 2.22-1.87 4.45-2.81 6.67-0.469 1.12-0.937 2.24-1.42 3.39-2.2 5.21-4.45 10.3-7.03 15.4-2.48 5.05-4.55 10.3-6.72 15.5-1.85 4.38-3.73 8.48-6.27 12.5-0.711 1.98-1.39 3.98-2 6h-2v3c-0.99 0.495-0.99 0.495-2 1-1.06 2.32-2.04 4.64-3 7-2.49 5.76-5.15 11.4-8 17l-1.75 3.5c-0.413 0.825-0.825 1.65-1.25 2.5-1.15-3.46-1-6.37-1-10-1.98 0.495-1.98 0.495-4 1-0.333-1.33-0.667-2.67-1-4-0.227-0.66-0.454-1.32-0.688-2-0.405-2.59 0.353-3.8 1.69-6h3c-0.2-0.575-0.399-1.15-0.605-1.74-0.488-2.79 0.0416-3.88 1.28-6.4 0.376-0.79 0.752-1.58 1.14-2.39 0.391-0.814 0.782-1.63 1.19-2.47 0.69-1.57 1.37-3.15 2.04-4.73 0.347-0.81 0.694-1.62 1.05-2.46 0.361-0.845 0.722-1.69 1.09-2.56 0.793-1.85 1.59-3.71 2.38-5.56 0.402-0.941 0.805-1.88 1.22-2.85 1.18-2.76 2.37-5.52 3.55-8.27 0.575-1.34 0.575-1.34 1.16-2.7 0.712-1.66 1.43-3.31 2.14-4.97 1.96-4.57 3.88-9.15 5.76-13.8 4.01-9.81 8.24-19.5 12.5-29.2 0.691-1.56 1.38-3.12 2.07-4.68 1.66-3.75 3.32-7.5 4.99-11.3zm-41 114c-0.99 0.66-1.98 1.32-3 2h4c-0.33-0.66-0.66-1.32-1-2zm1 2 1 3z" fill="#72A9C7"/>
<path transform="translate(614,487)" d="m0 0h1c-0.0116 0.831-0.0232 1.66-0.0352 2.52-0.00902 1.09-0.018 2.17-0.0273 3.29-0.0116 1.08-0.0232 2.16-0.0352 3.27-0.0386 2.98-0.0386 2.98 1.1 5.92 0.66 0.454 1.32 0.908 2 1.38 2 1.62 2 1.62 2.81 4.12 0.188 2.5 0.188 2.5-0.812 5.5h3c2.09 4.42 2.09 4.42 1.69 7.12-0.34 0.928-0.34 0.928-0.688 1.88-0.33 0.99-0.66 1.98-1 3v-2h-2c0.108 0.922 0.108 0.922 0.219 1.86 0.0928 0.808 0.186 1.62 0.281 2.45 0.0928 0.801 0.186 1.6 0.281 2.43 0.219 2.26 0.219 2.26 0.219 5.26 0.552 1.6 1.16 3.18 1.81 4.75 0.543 1.32 0.543 1.32 1.1 2.66 1.35 3.2 2.7 6.4 4.09 9.59 0.66-0.66 1.32-1.32 2-2 2.12 4.62 2.12 4.62 1 8 4.88 20.9 4.88 20.9 15 39 0.0406 1.67 0.0427 3.33 0 5h-2c-0.193-0.638-0.387-1.28-0.586-1.93-0.26-0.826-0.521-1.65-0.789-2.5-0.255-0.824-0.51-1.65-0.773-2.5-0.66-2.24-0.66-2.24-2.85-3.07-0.907-2.22-1.73-4.48-2.5-6.75-1.86-7.68-1.86-7.68-6.5-13.2 0.445 1.12 0.889 2.24 1.35 3.39 0.572 1.47 1.14 2.95 1.71 4.42 0.295 0.738 0.589 1.48 0.893 2.24 2.16 5.61 2.16 5.61 1.04 8.95-4.08-9.1-7.93-18.2-11.5-27.6-2.02-5.26-4.12-10.5-6.31-15.7-0.808-1.92-1.6-3.84-2.38-5.77-4.12-10.1-8.72-19.9-14.8-29-2.59-0.545-5-0.924-7.62-1.19-1.06-0.123-1.06-0.123-2.14-0.248-1.74-0.2-3.49-0.384-5.23-0.564 0-3.9 0.337-4.78 2-8v-3h5c0.33-0.99 0.66-1.98 1-3 4.36-1.24 7.46-0.663 11.8 0.438 1.16 0.287 2.32 0.575 3.52 0.871 0.88 0.228 1.76 0.456 2.67 0.691 0.66-3.96 1.32-7.92 2-12zm5 40 1 2zm12 41 1 2z" fill="#74ACCA"/>
<path transform="translate(806,1009)" d="m0 0h4c0.895 9.71 1.24 19.4 1.25 29.1 0.00167 0.742 0.00334 1.48 0.00507 2.25 0.00159 12-0.593 23.9-1.63 35.8-0.0631 0.742-0.126 1.48-0.191 2.25-1.73 19.9-1.73 19.9-4.43 22.6-0.144 1.07-0.289 2.14-0.438 3.25-0.491 3.27-1.2 5.76-2.56 8.75h-6v-2h2v-2c-0.99-0.33-1.98-0.66-3-1-0.376-9.3 0.318-17.9 1.93-27 0.807-4.75 1.2-9.2 1.07-14-0.142-5.91 0.639-11.4 1.72-17.2 1.61-8.94 2.38-18 3.19-27 0.114-1.2 0.227-2.41 0.344-3.65 0.144-1.62 0.144-1.62 0.291-3.27 0.432-2.69 1.08-4.5 2.45-6.83z" fill="#76ADCB"/>
<path transform="translate(561 377)" d="m0 0c5.51 0.0665 12.1 1.29 16.1 5.25 1.26 4.99 0.971 9.74 0.625 14.8-0.0438 0.775-0.0877 1.55-0.133 2.35-0.359 5.71-0.359 5.71-1.49 6.84-5.53 0.235-5.53 0.235-8-1-2.11-0.0854-4.21-0.107-6.32-0.0977-1.89 0.00483-1.89 0.00483-3.81 0.00977-1.32 0.00838-2.64 0.0168-4 0.0254-1.34 0.00502-2.68 0.00958-4.02 0.0137-3.29 0.0118-6.57 0.0283-9.86 0.0488-2.79-5.57-1.51-14.3 0.125-20.1 1.2-3.03 1.81-3.83 4.5-5.88 5.43-1.61 10.7-1.89 16.3-2.25z" fill="#9BBDD1"/>
<path transform="translate(547,444)" d="m0 0 2 1c0.625 2.06 0.625 2.06 1 4h2c0.33 0.99 0.66 1.98 1 3v-3c1.32 0.33 2.64 0.66 4 1l-2 1c2.48 0.99 2.48 0.99 5 2v-4c1.98-0.33 3.96-0.66 6-1 0.33-0.99 0.66-1.98 1-3 0.66 0.99 1.32 1.98 2 3-0.33 0.99-0.66 1.98-1 3h4v-3c5.75-0.125 5.75-0.125 8 1v2h3c0.108 2.08 0.186 4.17 0.25 6.25 0.0464 1.16 0.0928 2.32 0.141 3.52-0.468 3.87-1.51 4.75-4.39 7.23-0.495 1.49-0.495 1.49-1 3-2.38 0.625-2.38 0.625-5 1-0.66-0.66-1.32-1.32-2-2-2.6 0.32-2.6 0.32-5 1-0.33 0.99-0.66 1.98-1 3h-10c-0.33-0.99-0.66-1.98-1-3h-2c0.33 0.99 0.66 1.98 1 3-0.66 0.99-1.32 1.98-2 3-4.75-0.75-4.75-0.75-7-3v-3h-2c0.331-0.801 0.663-1.6 1-2.43 1.43-5.12 1.05-9.94 0.83-15.2-0.0187-0.775-0.0374-1.55-0.0566-2.35-0.0284-0.7-0.0569-1.4-0.0862-2.12 0.4-2.46 1.44-3.32 3.31-4.9z" fill="#7FA4B9"/>
<path transform="translate(775,1212)" d="m0 0c0.66 1.32 1.32 2.64 2 4-0.474 0.364-0.949 0.727-1.44 1.1-2.18 2.65-2.19 4.89-2.56 8.27-0.525 4.76-1.46 7.6-4 11.6-0.748 2.13-1.43 4.27-2.06 6.44-0.954 3.25-1.91 6.47-3 9.68-1.07 3.28-1.73 6.55-2.38 9.93-0.562 1.95-0.562 1.95-2.56 3.95-0.694 1.99-1.36 3.99-2 6-0.958 2.35-1.98 4.67-3 7h-2c-0.0825 0.619-0.165 1.24-0.25 1.88-0.75 2.12-0.75 2.12-2.62 3.19-1.05 0.464-1.05 0.464-2.12 0.938-2.97 2.41-3.98 5.01-5.25 8.56-0.356 0.971-0.712 1.94-1.08 2.94-0.961 2.47-0.961 2.47 0.328 4.5-2.04 3.94-4.23 7.53-7 11v-2h-2v-5c-0.99-0.33-1.98-0.66-3-1 0.141-1.63 0.288-3.25 0.438-4.88 0.0812-0.905 0.162-1.81 0.246-2.74 0.316-2.38 0.316-2.38 1.32-4.38 1.98-0.727 3.98-1.4 6-2v-4c0.147-1.59 0.314-3.17 0.5-4.75 0.0928-0.799 0.186-1.6 0.281-2.42 0.0722-0.603 0.144-1.21 0.219-1.83 5.75-2 5.75-2 8-2-0.0619-0.722-0.124-1.44-0.188-2.19 0.188-2.81 0.188-2.81 1.75-5.25 1.85-3.31 1.22-4.94 0.438-8.56 0.33-0.99 0.66-1.98 1-3h6c-0.247-0.959-0.247-0.959-0.5-1.94-0.659-4.04-0.58-7.98-0.5-12.1 1.32-0.33 2.64-0.66 4-1 0.33-2.64 0.66-5.28 1-8 1.32-0.33 2.64-0.66 4-1 0.186-0.866 0.186-0.866 0.375-1.75 0.625-2.25 0.625-2.25 1.69-4.31 1.16-2.03 1.16-2.03 0.938-4.94h3v-3c0.928-0.34 0.928-0.34 1.88-0.688 2.74-1.69 3.18-3.3 4.12-6.31zm-22 62c-0.33 0.99-0.66 1.98-1 3h2c0.33-0.99 0.66-1.98 1-3h-2zm-4 5 1 2z" fill="#7AB4D4"/>
<path transform="translate(558,485)" d="m0 0c2.04 0.383 2.04 0.383 4.25 0.5 4.11 0.373 7.79 1.3 11.8 2.5 1.99 0.363 3.99 0.706 6 1 2 5.62 2 5.62 2 9-1.98 0.33-3.96 0.66-6 1 0.495 1.98 0.495 1.98 1 4-4.35 0.893-8.4 1.03-12.8 0.965-2.79 0.0448-5.45 0.556-8.19 1.04-0.33-0.33-0.66-0.66-1-1-3.27-0.0319-6.53 0.0686-9.8 0.16-3.09-0.154-4.76-0.282-7.2-2.16-0.504-1.88-0.504-1.88-0.562-4-0.00756-2.1-0.00756-2.1-0.438-4-0.99-0.66-1.98-1.32-3-2 1.19-1.5 1.19-1.5 3-3 2.69-0.188 2.69-0.188 5 0 0.149-2.07 0.149-2.07-1-4 12.4-3.04 12.4-3.04 17 0z" fill="#A2C5D9"/>
<path transform="translate(923,1401)" d="m0 0v6c0.727-0.0232 1.45-0.0464 2.2-0.0703 8.44-0.152 16.7 0.384 24.8 3.07 2 0.352 4 0.688 6 1v1c-5.01 0.29-10 0.574-15 0.854-1.7 0.0956-3.4 0.193-5.1 0.291-9.35 0.541-18.6 0.971-28 0.841-2.58 0.0124-5.04 0.192-7.6 0.514-4.88 0.571-9.72 0.613-14.6 0.625-0.786 0.00451-1.57 0.00902-2.38 0.0137-3.58-0.00926-6.8-0.171-10.2-1.14 0.667-1.33 1.33-2.67 2-4 3.06-0.625 3.06-0.625 6-1v-3c13.2-6.95 27.5-5.49 42-5z" fill="#7FA4B9"/>
<path transform="translate(624,518)" d="m0 0c2.67 1.34 2.75 2.5 3.77 5.27 0.494 1.32 0.494 1.32 0.997 2.68 0.345 0.946 0.69 1.89 1.05 2.87 0.717 1.93 1.44 3.86 2.16 5.79 0.348 0.934 0.696 1.87 1.05 2.83 1.19 3.12 2.47 6.19 3.79 9.26 1.85 4.33 3.23 8.67 4.5 13.2 0.853 2.63 2.23 4.77 3.68 7.11 0.459 1.64 0.915 3.28 1.34 4.93 1.12 3.55 2.79 6.86 4.36 10.2 2.81 6.14 5.27 12.4 7.3 18.8-0.99-0.66-1.98-1.32-3-2-0.66 0.66-1.32 1.32-2 2-0.33-0.99-0.66-1.98-1-3h-3c-1.01-2.27-2.01-4.54-3-6.81-0.286-0.643-0.572-1.29-0.867-1.95-1.27-2.92-2.13-5.02-2.13-8.24h-2c-9.14-21.6-9.14-21.6-10-31h-2c-8.15-17-8.15-17-8-27 0.66-0.33 1.32-0.66 2-1 0.652-2.02 0.652-2.02 1-4z" fill="#94B6C9"/>
<path transform="translate(152 1401)" d="m0 0c3.01 0.00544 6.03-2.72e-5 9.04-0.00635 1.94 6.6e-4 3.88 0.00194 5.82 0.00391 0.889-0.00202 1.78-0.00405 2.69-0.00613 4.83 0.0181 9.41 0.327 14.2 1.14v2c-1.32 0.66-2.64 1.32-4 2 0.99 0.495 0.99 0.495 2 1-0.667 1.33-1.33 2.67-2 4-4.25 0.0499-8.5 0.086-12.8 0.11-1.44 0.00998-2.88 0.0236-4.33 0.041-7.01 0.0826-13.7 0.159-20.5-1.67-6.03-1.19-12.4-0.971-18.5-1.11-1.45-0.0383-2.9-0.0773-4.36-0.117-3.53-0.0951-7.05-0.179-10.6-0.258-0.33-0.66-0.66-1.32-1-2-0.66-0.66-1.32-1.32-2-2 5.24-1.7 10-2.4 15.5-2.62 0.817-0.0375 1.63-0.0751 2.47-0.114 9.44-0.392 18.9-0.42 28.3-0.399z" fill="#A1C4D8"/>
<path transform="translate(603,516)" d="m0 0c0.99 0.33 1.98 0.66 3 1v2c0.557-0.144 1.11-0.289 1.69-0.438 2.43-0.59 4.86-1.09 7.31-1.56 1.56 1.75 1.56 1.75 3 4-0.312 2.25-0.312 2.25-1 4h2c2.39 3.58 3 5.73 3 10 0.552 1.6 1.16 3.18 1.81 4.75 0.362 0.879 0.724 1.76 1.1 2.66 1.35 3.2 2.7 6.4 4.09 9.59 0.66-0.66 1.32-1.32 2-2 2.12 4.62 2.12 4.62 1 8 4.88 20.9 4.88 20.9 15 39 0.0406 1.67 0.0427 3.33 0 5h-2c-0.193-0.638-0.387-1.28-0.586-1.93-0.26-0.826-0.521-1.65-0.789-2.5-0.255-0.824-0.51-1.65-0.773-2.5-0.66-2.24-0.66-2.24-2.85-3.07-0.907-2.22-1.73-4.48-2.5-6.75-1.86-7.68-1.86-7.68-6.5-13.2 0.445 1.12 0.889 2.24 1.35 3.39 0.572 1.47 1.14 2.95 1.71 4.42 0.442 1.11 0.442 1.11 0.893 2.24 2.16 5.61 2.16 5.61 1.04 8.95-4.08-9.1-7.93-18.2-11.5-27.6-2.02-5.26-4.12-10.5-6.31-15.7-0.808-1.92-1.6-3.84-2.38-5.77-3.66-8.99-7.71-17.7-12.8-26zm28 52 1 2z" fill="#7497AA"/>
<path transform="translate(752,1402)" d="m0 0h6v4c1.32 0.66 2.64 1.32 4 2v3c1.98-0.33 3.96-0.66 6-1-0.495-0.99-0.495-0.99-1-2 2.31 0.33 4.62 0.66 7 1-0.66 0.66-1.32 1.32-2 2h3v2c0.99-0.33 1.98-0.66 3-1v2h5c0.495 0.99 0.495 0.99 1 2-6.1 1.77-11.6 2.3-17.9 2.27-1.37 0.00287-1.37 0.00287-2.78 0.0058-1.92 0.00135-3.84-0.00228-5.76-0.0107-2.95-0.0108-5.9-3.59e-5 -8.85 0.0127-1.87-0.00132-3.74-0.00388-5.61-0.00781-1.32 0.00607-1.32 0.00607-2.68 0.0123-6.19-0.0479-6.19-0.0479-8.42-2.28-0.195-2.16-0.195-2.16-0.125-4.62 0.018-0.817 0.0361-1.63 0.0547-2.48 0.0232-0.626 0.0464-1.25 0.0703-1.9 2.27-0.027 4.54-0.0464 6.81-0.0625 1.26-0.0116 2.53-0.0232 3.83-0.0352 3.36 0.0977 3.36 0.0977 6.36 1.1v2h2c0.33-2.64 0.66-5.28 1-8z" fill="#7FA4B9"/>
<path transform="translate(956,1400)" d="m0 0c32-0.189 32-0.189 45.8 0.375 0.878 0.0309 1.76 0.0617 2.66 0.0935 4.26 0.204 7.7 0.588 11.6 2.53v3c-4.34 1.59-8.41 2.45-13 3-1.63 0.253-1.63 0.253-3.3 0.512-6.48 0.806-13 0.712-19.5 0.738-1.34 0.0208-2.67 0.0416-4.01 0.0625-1.26 0.00516-2.53 0.0103-3.83 0.0156-1.15 0.00935-2.3 0.0187-3.48 0.0283-2.88-0.356-2.88-0.356-4.77-1.88-0.364-0.488-0.728-0.976-1.1-1.48 0.33-0.99 0.66-1.98 1-3-1.14 0.124-1.14 0.124-2.31 0.25-0.887-0.0825-1.77-0.165-2.69-0.25-1.67-2.02-1.67-2.02-3-4z" fill="#A2C5D9"/>
<path transform="translate(583,259)" d="m0 0 1 2c1.89 0.685 1.89 0.685 4.06 1.12 0.733 0.168 1.47 0.335 2.22 0.508 0.566 0.121 1.13 0.242 1.71 0.367v1h-5v2c0.557-0.206 1.11-0.413 1.69-0.625 2.31-0.375 2.31-0.375 4.56 0.562 3.74 1.44 6.76 1.2 10.8 1.06v2c3.8-0.968 3.8-0.968 7-3 4.69-0.552 7.84 1.04 12 3v1c-21.8 0.0949-43.6-0.168-65.5-0.464-4.59-0.0616-9.17-0.121-13.8-0.181-8.92-0.117-17.8-0.235-26.8-0.355 3.65-4.9 3.65-4.9 6.79-5.84 3.58-0.179 7.01-0.0262 10.6 0.277 1.87 0.153 1.87 0.153 3.77 0.309 1.41 0.126 1.41 0.126 2.85 0.254v3c2.65 0.0268 5.29 0.0468 7.94 0.0625 0.755 0.00838 1.51 0.0168 2.29 0.0254 1.93 0.00863 3.85-0.0356 5.78-0.0879 0.33-0.33 0.66-0.66 1-1 1.68-0.233 3.37-0.413 5.06-0.562 0.919-0.0838 1.84-0.168 2.79-0.254 0.71-0.0606 1.42-0.121 2.15-0.184v2c1.48-0.254 2.96-0.529 4.44-0.812 1.24-0.226 1.24-0.226 2.5-0.457 0.682-0.241 1.36-0.482 2.07-0.73 0.33-0.99 0.66-1.98 1-3-0.66-0.99-1.32-1.98-2-3 2.7-1.35 4.15-0.803 7 0z" fill="#7AB5D5"/>
<path transform="translate(924 1399)" d="m0 0c1.45 0.022 2.9 0.0508 4.35 0.085 0.766 0.0165 1.53 0.033 2.32 0.05 1.63 0.0376 3.25 0.0781 4.87 0.121 2.48 0.0625 4.96 0.104 7.45 0.145 1.58 0.0391 3.15 0.0794 4.73 0.121 0.742 0.00953 1.48 0.0191 2.25 0.0289 4.24 0.14 6.63 0.633 9.76 3.52 2.15 0.705 2.15 0.705 4 1v5c0.66 0.33 1.32 0.66 2 1-3.64 1.13-7.08 1.17-10.9 1.19-1.19 0.0142-2.39 0.0284-3.62 0.043-3.56-0.234-6.14-1.11-9.51-2.23-3.28-0.513-6.57-0.821-9.88-1.12-1.32-0.13-1.32-0.13-2.66-0.262-2.15-0.211-4.31-0.413-6.46-0.613-1.12-3.75-1.12-3.75 0-6-0.99-0.33-1.98-0.66-3-1 1-1 1-1 4.26-1.07z" fill="#7AB4D3"/>
<path transform="translate(448,627)" d="m0 0h2c0.33 2.64 0.66 5.28 1 8-0.99 0.33-1.98 0.66-3 1-0.806 2.11-0.806 2.11-1.19 4.56-0.238 1.24-0.238 1.24-0.48 2.5-0.164 0.957-0.164 0.957-0.332 1.93h5c0 2.31 0 2.31-1 5-2.02 0.919-4.07 1.52-6.19 2.18-0.598 0.272-1.2 0.544-1.81 0.824-1.13 2.57-1.13 2.57-1 5h-2c0.33 1.32 0.66 2.64 1 4-1.98 0.495-1.98 0.495-4 1 0.0619 1.09 0.124 2.19 0.188 3.31-0.188 3.69-0.188 3.69-1.56 5.62-1.62 1.06-1.62 1.06-3.62 1.06 0.206 1.24 0.413 2.48 0.625 3.75 0.436 3.37 0.409 5.38-1.62 8.25h-3v-2h-2c0.549-5.3 1.89-9.78 4-14.7 0.302-0.718 0.604-1.44 0.915-2.17 2.94-6.92 6.03-13.8 9.15-20.6 0.367-0.806 0.735-1.61 1.11-2.44 0.327-0.714 0.655-1.43 0.992-2.16 0.929-2.06 0.929-2.06 1.83-4.91h2l3-9z" fill="#97B9CC"/>
<path transform="translate(542,259)" d="m0 0c4.77-0.099 9.54-0.172 14.3-0.22 1.62-0.0201 3.24-0.0474 4.87-0.082 2.33-0.0486 4.67-0.0712 7-0.0889 0.723-0.0206 1.45-0.0413 2.19-0.0626 3.58-0.00159 5.3 0.181 8.13 2.48 0.499 0.652 0.997 1.3 1.51 1.98-0.66 0.33-1.32 0.66-2 1 0.495 0.99 0.495 0.99 1 2-3.67 1.18-7.17 1.07-11 1v-2c-1.65 0.308-3.29 0.621-4.94 0.938-0.917 0.174-1.83 0.348-2.78 0.527-2.24 0.312-2.24 0.312-3.29 1.54-2.31 0.0993-4.62 0.13-6.94 0.125-1.9 0.00387-1.9 0.00387-3.84 0.00781-3.22-0.133-3.22-0.133-5.22-1.13v-3c-0.964 0.0232-1.93 0.0464-2.92 0.0703-1.26 0.018-2.53 0.0361-3.83 0.0547-1.25 0.0232-2.51 0.0464-3.8 0.0703-3.45-0.195-3.45-0.195-7.45-2.2 10.4-0.495 10.4-0.495 21-1-0.66-0.66-1.32-1.32-2-2z" fill="#A1C5D9"/>
<path transform="translate(693,685)" d="m0 0c2.79 1.09 4.58 2.19 5.98 4.9 0.64 1.68 1.26 3.36 1.87 5.05 1.31 3.48 2.87 6.82 4.46 10.2 2.58 5.46 5.08 11 7.5 16.5 0.435 0.994 0.435 0.994 0.878 2.01 1.49 3.43 2.94 6.88 4.31 10.4h-2c-0.33-0.66-0.66-1.32-1-2-0.66 0.99-1.32 1.98-2 3-5.52-5.05-8-10.8-10.9-17.5-0.793-1.82-1.6-3.64-2.41-5.45-1.43-3.2-2.84-6.4-4.24-9.62-0.466-1.03-0.932-2.07-1.41-3.14-3.19-7.46-3.19-7.46-2.3-12 0.632-1.13 0.632-1.13 1.28-2.29zm4 7 1 2zm9 22c0.33 1.32 0.66 2.64 1 4 0.66-0.33 1.32-0.66 2-1-0.99-0.99-1.98-1.98-3-3zm3 9c0.66 0.66 1.32 1.32 2 2v-2h-2zm2 2c0.342 2.97 0.342 2.97 1 6 0.66 0.33 1.32 0.66 2 1-0.342-2.97-0.342-2.97-1-6-0.66-0.33-1.32-0.66-2-1z" fill="#7BA2B9"/>
<path transform="translate(192 1399)" d="m0 0c1.25-0.0122 2.49-0.0245 3.77-0.0371 1.79-0.0029 1.79-0.0029 3.62-0.00586 1.1-0.00411 2.19-0.00822 3.33-0.0125 2.85 0.238 4.49 0.768 6.9 2.24-0.66 0.433-1.32 0.866-2 1.31-0.66 0.557-1.32 1.11-2 1.69v3c-1.65 0.66-3.3 1.32-5 2v3c-2.88 0.0543-5.75 0.0938-8.62 0.125-0.808 0.0168-1.62 0.0335-2.45 0.0508-4.73 0.0384-8.48-0.348-12.9-2.18 0.639-0.309 1.28-0.619 1.94-0.938 2-0.897 2-0.897 3.06-2.06-1.32-0.33-2.64-0.66-4-1 1.98-0.66 3.96-1.32 6-2v-2h-7v-2c4.43-2.22 10.5-1.18 15.4-1.19z" fill="#7AB4D3"/>
<path transform="translate(650,598)" d="m0 0h2c0.33 0.66 0.66 1.32 1 2 0.66-0.66 1.32-1.32 2-2 4.97 5.34 4.97 5.34 5.12 8.75-0.0412 0.742-0.0825 1.49-0.125 2.25 0.99 0.66 1.98 1.32 3 2 1.12 1.97 1.12 1.97 2.16 4.36 0.383 0.869 0.766 1.74 1.16 2.63 0.586 1.37 0.586 1.37 1.18 2.76 0.78 1.79 1.56 3.57 2.34 5.36 0.368 0.847 0.735 1.69 1.11 2.57 0.873 1.95 1.83 3.86 2.81 5.75 1.45 3.03 1.47 5.25 1.23 8.57-0.33-0.99-0.66-1.98-1-3h-2c0.348 1.98 0.348 1.98 1 4 0.66 0.33 1.32 0.66 2 1 0.625 2.06 0.625 2.06 1 4h-4c-0.671-1.62-1.34-3.25-2-4.88-0.371-0.905-0.742-1.81-1.12-2.74-0.875-2.38-0.875-2.38-0.875-4.38h-2c-0.231-0.583-0.461-1.17-0.699-1.77-3.49-8.78-7.03-17.5-11-26.1-1.68-3.65-3.16-7.26-4.31-11.1zm11 14 1 2zm10 23 1 3z" fill="#8FB1C5"/>
<path transform="translate(575,380)" d="m0 0c2.67 2.67 2.62 4.26 3 8-0.00418 2.95-0.174 5.87-0.375 8.81-0.0438 0.775-0.0877 1.55-0.133 2.35-0.359 5.71-0.359 5.71-1.49 6.84-5.53 0.235-5.53 0.235-8-1 0.66-2.64 1.32-5.28 2-8 0.99 0.33 1.98 0.66 3 1-0.186-1.11-0.371-2.23-0.562-3.38-0.438-3.62-0.438-3.62 0.562-5.62h-6c-0.33-1.65-0.66-3.3-1-5-3.96-0.33-7.92-0.66-12-1 1-3 1-3 2-4-0.99-0.33-1.98-0.66-3-1 7.44-2.48 14.9-0.862 22 2z" fill="#7CB5D4"/>
<path transform="translate(606,498)" d="m0 0c-0.33 1.98-0.66 3.96-1 6 1.32 0.33 2.64 0.66 4 1v9h-2v2c-2.87-0.573-3.86-0.861-6-3-2.56-0.466-5.05-0.835-7.62-1.12-0.706-0.0864-1.41-0.173-2.14-0.262-1.74-0.212-3.49-0.414-5.23-0.613 0-3.9 0.337-4.78 2-8v-3h5c0.33-0.99 0.66-1.98 1-3 4.26-1.77 7.75-0.204 12 1z" fill="#7FA4BA"/>
<path transform="translate(624,518)" d="m0 0c2.67 1.34 2.75 2.5 3.77 5.27 0.33 0.884 0.659 1.77 0.999 2.68 0.345 0.945 0.689 1.89 1.04 2.86 2.62 7.1 5.33 14.1 8.57 20.9 0.617 2.28 0.617 2.28-0.141 4.4-1.08 1.63-2.16 3.25-3.24 4.88h-2c-0.66-2.97-1.32-5.94-2-9h-2c-8.15-17-8.15-17-8-27 0.66-0.33 1.32-0.66 2-1 0.652-2.02 0.652-2.02 1-4z" fill="#9BBED3"/>
<path transform="translate(810,1395)" d="m0 0c2.87 0.573 3.86 0.861 6 3 0.846 0.474 1.69 0.949 2.56 1.44 2.44 1.56 2.44 1.56 3.44 4.56-0.276 2.01-0.602 4.01-1 6h-7c-0.33 0.99-0.66 1.98-1 3-1.98 0.33-3.96 0.66-6 1-0.227-0.639-0.454-1.28-0.688-1.94-1.17-2.33-1.17-2.33-3.94-2.81-0.784-0.0825-1.57-0.165-2.38-0.25-0.33-2.64-0.66-5.28-1-8 3-2 3-2 5-2 0.33-0.33 0.66-0.66 1-1 2-0.0408 4-0.0425 6 0-0.33-0.99-0.66-1.98-1-3z" fill="#A2C5D9"/>
<path transform="translate(528 1404)" d="m0 0c1.19 0.00258 2.37 0.00516 3.59 0.00781 1.19-0.00258 2.37-0.00516 3.59-0.00781 2.91 0.133 2.91 0.133 3.91 1.13 0.141 2.67 0.0425 5.32 0 8 5.45 0.495 5.45 0.495 11 1v1c-6.61 0.867-13.2 1.14-19.8 1.19-0.824 0.0129-1.65 0.0258-2.5 0.0391-4.35 0.00709-7.73-0.192-11.7-2.23v-5c1.32-0.33 2.64-0.66 4-1-0.99-0.66-1.98-1.32-3-2 1.13-0.144 2.27-0.289 3.44-0.438 3.52-0.556 4.09-1.54 7.47-1.7z" fill="#80A4B9"/>
<path transform="translate(377,1298)" d="m0 0c5.52 1.43 8.16 2.62 11.2 7.5 0.438 0.773 0.877 1.55 1.33 2.34 1.54 2.34 3.11 3.61 5.42 5.16-0.33 0.66-0.66 1.32-1 2 0.99 0.66 1.98 1.32 3 2l-3 6c-2.31-0.188-2.31-0.188-5-1-2.21-2.9-3-4.33-3-8-0.66-0.33-1.32-0.66-2-1-1.02-1.66-2.02-3.32-3-5-0.66-0.66-1.32-1.32-2-2-0.165-0.681-0.33-1.36-0.5-2.06-0.165-0.639-0.33-1.28-0.5-1.94-0.66-0.33-1.32-0.66-2-1 0.33-0.99 0.66-1.98 1-3zm4 4 1 4c0.33-0.66 0.66-1.32 1-2-0.66-0.66-1.32-1.32-2-2zm2 4c0.33 0.99 0.66 1.98 1 3v-3h-1z" fill="#9FC3D7"/>
<path transform="translate(672,657)" d="m0 0c3.28 2.19 3.55 2.78 4.81 6.31 2.41 6.38 5.3 12.5 8.19 18.7 1.04 2.27 2.08 4.54 3.12 6.81 1.68 3.65 3.4 7.25 5.25 10.8 1.62 3.38 1.62 3.38 1.62 6.38-2.61-1.01-3.79-1.62-5.2-4.09-0.307-0.794-0.614-1.59-0.93-2.41-1.1-2.81-1.72-4.34-3.88-6.5-0.309-1.11-0.619-2.23-0.938-3.38-0.796-3.55-0.796-3.55-2.69-5.69-1.9-2.67-1.59-4.74-1.38-7.94h-2c-3-6.5-3-6.5-3-11h-2c-0.33-2.64-0.66-5.28-1-8z" fill="#80A4B9"/>
<path transform="translate(756,1392)" d="m0 0c4.02-0.0249 8.04-0.0429 12.1-0.0549 1.37-0.00501 2.73-0.0118 4.1-0.0205 1.97-0.0122 3.94-0.0173 5.91-0.0222 1.78-0.00786 1.78-0.00786 3.59-0.0159 3.2 0.109 6.2 0.508 9.34 1.11-0.66 0.33-1.32 0.66-2 1v2c-2 2-2 2-4.94 2.12-1.01-0.0412-2.02-0.0825-3.06-0.125h-3v-2c-0.885 0.0157-0.885 0.0157-1.79 0.0317-2.67 0.0416-5.35 0.0676-8.02 0.0933-0.929 0.0168-1.86 0.0335-2.81 0.0508-0.893 0.00645-1.79 0.0129-2.71 0.0195-0.822 0.0105-1.64 0.0209-2.49 0.0317-2.18-0.227-2.18-0.227-5.18-2.23 0.33-0.66 0.66-1.32 1-2z" fill="#7DA2B7"/>
<path transform="translate(701,712)" d="m0 0c0.33 0.66 0.66 1.32 1 2h2v2h3l2 2h2c2.31 4.95 4.62 9.9 7 15-0.66 0.33-1.32 0.66-2 1-0.33-0.66-0.66-1.32-1-2-0.66 0.99-1.32 1.98-2 3-4.24-3.8-6.52-7.45-8.81-12.6-0.311-0.668-0.623-1.34-0.943-2.02-1.34-2.95-2.24-5.08-2.24-8.35zm8 11 2 2v-2h-2zm2 2c0.342 2.97 0.342 2.97 1 6 0.66 0.33 1.32 0.66 2 1-0.342-2.97-0.342-2.97-1-6-0.66-0.33-1.32-0.66-2-1z" fill="#7293A6"/>
<path transform="translate(884,1391)" d="m0 0v2c-8.74 1.79-17.1 2.24-26 2v-3h3v-2c7.82-1.76 15.4-1.69 23 1z" fill="#85AAC0"/>
<path transform="translate(466,591)" d="m0 0c0.66 0.99 1.32 1.98 2 3-0.875 3.19-0.875 3.19-2 6h-3c0.33 0.99 0.66 1.98 1 3 0.99-0.66 1.98-1.32 3-2 0.33 1.32 0.66 2.64 1 4-5.62 4-5.62 4-9 4-1.32-3.62-0.683-5.67 0.75-9.19 0.345-0.88 0.691-1.76 1.05-2.67 1.2-2.14 1.2-2.14 4.2-3.14 0.33-0.99 0.66-1.98 1-3z" fill="#A0C4D9"/>
<path transform="translate(516,259)" d="m0 0c4.27-0.0579 8.54-0.0936 12.8-0.125 1.21-0.0168 2.43-0.0335 3.68-0.0508 1.16-0.00645 2.33-0.0129 3.53-0.0195 1.61-0.0157 1.61-0.0157 3.25-0.0317 2.73 0.227 2.73 0.227 5.73 2.23-1 1-1 1-3.78 1.11-1.21-0.00524-2.42-0.0105-3.67-0.0159-1.31-0.00322-2.61-0.00645-3.96-0.00977-1.39-0.00836-2.78-0.0168-4.17-0.0254-1.39-0.00501-2.79-0.00958-4.18-0.0137-3.42-0.0118-6.84-0.0283-10.3-0.0488 0.33-0.99 0.66-1.98 1-3z" fill="#7AB5D5"/>
<path transform="translate(650,598)" d="m0 0h2c0.33 0.66 0.66 1.32 1 2 0.66-0.66 1.32-1.32 2-2 4.92 5.29 4.92 5.29 5.31 8.88-0.155 1.05-0.155 1.05-0.312 2.12 0.66 0.33 1.32 0.66 2 1-1 3-1 3-3.06 4.19-0.639 0.268-1.28 0.536-1.94 0.812-5.37-11.5-5.37-11.5-7-17z" fill="#7EABC5"/>
<path transform="translate(794,1107)" d="m0 0c1.32 0.66 2.64 1.32 4 2v2h-2v2c1.32-0.66 2.64-1.32 4-2 0.389 1.29 0.761 2.58 1.12 3.88 0.209 0.719 0.418 1.44 0.633 2.18 0.0799 0.642 0.16 1.28 0.242 1.95-0.66 0.66-1.32 1.32-2 2v-2c-4.61 1.21-4.61 1.21-9 3 0.311-1.75 0.624-3.5 0.938-5.25 0.174-0.975 0.348-1.95 0.527-2.95 0.439-2.29 0.939-4.54 1.54-6.8z" fill="#A3C6DA"/>
<path transform="translate(674,675)" d="m0 0h2c0.33 0.99 0.66 1.98 1 3 0.66 0.33 1.32 0.66 2 1 0.367 1.32 0.696 2.66 1 4 0.61 1.33 1.26 2.64 1.94 3.94 3.14 6.16 5.13 12.4 7.06 19.1h2c2.28 6.96 2.28 6.96 1 11-2.25-5.02-4.49-10-6.73-15.1-0.761-1.71-1.52-3.41-2.29-5.12-1.1-2.46-2.2-4.91-3.29-7.37-0.34-0.756-0.679-1.51-1.03-2.29-1.78-4-3.36-7.98-4.67-12.2z" fill="#000001"/>
<path transform="translate(377,1298)" d="m0 0c7.11 1.81 7.11 1.81 9.64 5.2 1.22 2.23 2.34 4.47 3.36 6.8-0.66 0.66-1.32 1.32-2 2-0.33 0.99-0.66 1.98-1 3-3.2-2.14-4.12-3.73-6-7-0.66-0.66-1.32-1.32-2-2-0.165-0.681-0.33-1.36-0.5-2.06-0.165-0.639-0.33-1.28-0.5-1.94-0.66-0.33-1.32-0.66-2-1 0.33-0.99 0.66-1.98 1-3zm4 4 1 4c0.33-0.66 0.66-1.32 1-2-0.66-0.66-1.32-1.32-2-2zm2 4c0.33 0.99 0.66 1.98 1 3v-3h-1z" fill="#7B9EB2"/>
<path transform="translate(635,554)" d="m0 0h5c0.481 1.42 0.96 2.83 1.44 4.25 0.4 1.18 0.4 1.18 0.809 2.39 1.92 6.02 1.92 6.02 0.754 8.36-1.88-0.25-1.88-0.25-4-1-1.72-2.58-2-3.85-2-7h-2c-0.33 0.66-0.66 1.32-1 2-0.33-1.32-0.66-2.64-1-4h2v-5z" fill="#7EB5D3"/>
<path transform="translate(802,1030)" d="m0 0c2.56 3.84 1.86 6.29 1.25 10.6-1.17 9.08-1.88 18.2-2.46 27.3-0.0738 1.03-0.148 2.07-0.224 3.13-0.0606 0.928-0.121 1.86-0.184 2.81-0.125 0.701-0.25 1.4-0.379 2.12-0.99 0.495-0.99 0.495-2 1-0.362-10.6 0.342-20.4 2.27-30.8 0.982-5.37 1.42-10.8 1.73-16.2z" fill="#000001"/>
<path transform="translate(614,534)" d="m0 0h2c0.326 0.929 0.652 1.86 0.988 2.82 2.69 7.74 2.69 7.74 5.82 15.3 1.19 2.88 1.19 2.88 1.19 6.88h2c1.35 2.71 1.07 5.01 1 8-2.59-3.13-4.03-6.19-5.48-9.97-0.442-1.15-0.883-2.29-1.34-3.47-0.678-1.79-0.678-1.79-1.37-3.62-0.463-1.2-0.927-2.39-1.4-3.63-3.41-8.92-3.41-8.92-3.41-12.3z" fill="#000001"/>
<path transform="translate(693,717)" d="m0 0h2c0.424 1.05 0.848 2.11 1.29 3.19 3.51 8.66 7.21 17.2 11.3 25.5 1.33 3.15 1.98 5.89 2.38 9.27-3.27-1.63-3.85-5.18-5.12-8.44-2.94-7.37-6.09-14.6-9.39-21.8-2.49-5.51-2.49-5.51-2.49-7.72z" fill="#000001"/>
<path transform="translate(638,593)" d="m0 0c2.71 1.36 2.91 2.73 4.06 5.52 0.386 0.922 0.772 1.84 1.17 2.79 0.399 0.971 0.798 1.94 1.21 2.94 0.787 1.9 1.58 3.8 2.37 5.7 0.349 0.847 0.697 1.69 1.06 2.57 1.11 2.56 1.11 2.56 2.74 5.09 1.63 2.79 1.9 5.23 2.4 8.39 0.66 0.33 1.32 0.66 2 1-0.66 0.99-1.32 1.98-2 3-0.208-0.548-0.415-1.1-0.629-1.66-2.1-5.4-4.41-10.7-6.87-15.9-0.302-0.644-0.605-1.29-0.917-1.95-0.861-1.83-1.72-3.66-2.58-5.49-0.82-1.75-1.63-3.5-2.44-5.25-0.308-0.665-0.616-1.33-0.934-2.02-0.629-1.73-0.629-1.73-0.629-4.73z"/>
<path transform="translate(678,1363)" d="m0 0c0.66 0.33 1.32 0.66 2 1-0.33 1.32-0.66 2.64-1 4 0.66 0.33 1.32 0.66 2 1-0.33 1.65-0.66 3.3-1 5-3 1-3 1-5.19 0.0625-0.598-0.351-1.2-0.701-1.81-1.06 0.33-1.65 0.66-3.3 1-5 0.99-0.33 1.98-0.66 3-1v-2c-0.66-0.33-1.32-0.66-2-1 0.99-0.33 1.98-0.66 3-1z" fill="#A1C5D9"/>
<path transform="translate(696,714)" d="m0 0h2c3.89 6.4 3.89 6.4 4.44 9.44 0.749 3.41 2.52 5.76 4.5 8.6 1.06 1.96 1.06 1.96 1.06 5.96h-2c-0.33-0.99-0.66-1.98-1-3-0.946-1.97-1.94-3.9-2.96-5.82-2.56-4.91-4.42-9.88-6.04-15.2z" fill="#465A67"/>
<path transform="translate(392,1298)" d="m0 0h4c0.66 2.31 1.32 4.62 2 7-0.66 0.66-1.32 1.32-2 2h-2v2h-2c-3.12-6.62-3.12-6.62-2-10h2v-1z" fill="#93BCD4"/>
<path transform="translate(673,636)" d="m0 0c0.66 0.33 1.32 0.66 2 1v6c-0.33-0.99-0.66-1.98-1-3h-2c0.348 1.98 0.348 1.98 1 4 0.66 0.33 1.32 0.66 2 1 0.625 2.06 0.625 2.06 1 4h-4c-0.697-1.62-1.38-3.25-2.06-4.88-0.383-0.905-0.766-1.81-1.16-2.74-0.777-2.38-0.777-2.38 0.223-4.38h3l1-1z" fill="#7CADC8"/>
<path transform="translate(871,1389)" d="m0 0c1.42 0.142 2.83 0.289 4.25 0.438 1.18 0.122 1.18 0.122 2.39 0.246 2.18 0.293 4.24 0.737 6.36 1.32v2c-1.96 0.362-3.92 0.714-5.88 1.06-1.09 0.197-2.18 0.394-3.3 0.598-2.82 0.34-2.82 0.34-4.82-0.66 0.33-1.65 0.66-3.3 1-5z" fill="#7DA1B5"/>
<path transform="translate(804,1013)" d="m0 0c0.66 0.33 1.32 0.66 2 1-0.126 0.957-0.126 0.957-0.254 1.93-0.153 1.24-0.153 1.24-0.309 2.5-0.104 0.824-0.209 1.65-0.316 2.5-0.04 0.682-0.0799 1.36-0.121 2.07 0.33 0.33 0.66 0.66 1 1 0.0721 1.69 0.0839 3.38 0.0625 5.06-0.00902 0.919-0.018 1.84-0.0273 2.79-0.0116 0.71-0.0232 1.42-0.0352 2.15-0.99-0.33-1.98-0.66-3-1-0.185-13.6-0.185-13.6 1-20z" fill="#4E6573"/>
<path transform="translate(524,428)" d="m0 0c1.88 5.63-0.7 12.2-3.12 17.4-0.289 0.516-0.577 1.03-0.875 1.56-1.08-5.93-1.32-11.3 1-17 0.99-0.66 1.98-1.32 3-2z" fill="#9CC3D9"/>
<path transform="translate(635,561)" d="m0 0h2c2 2 2 2 2.5 4.56 0.165 0.804 0.33 1.61 0.5 2.44 0.66 0.33 1.32 0.66 2 1-0.186 0.619-0.371 1.24-0.562 1.88-0.674 2.17-0.674 2.17 0.562 4.12h-3c-4.59-9.41-4.59-9.41-4-14z" fill="#93BCD2"/>
<path transform="translate(854,1396)" d="m0 0c3.96 0.33 7.92 0.66 12 1v1h-6v6c-2.97-0.495-2.97-0.495-6-1 1.32-0.33 2.64-0.66 4-1-1.32-0.66-2.64-1.32-4-2v-4z" fill="#A3C6DA"/>
<path transform="translate(674,675)" d="m0 0h2c0.33 0.99 0.66 1.98 1 3 0.66 0.33 1.32 0.66 2 1 0.362 1.33 0.691 2.66 1 4 0.657 1.33 1.35 2.64 2.06 3.94 1.64 3.17 2.39 5.43 1.94 9.06-3.13-3.67-4.82-7.8-6.69-12.2-0.32-0.737-0.641-1.47-0.971-2.23-2.34-5.43-2.34-5.43-2.34-6.58z" fill="#0C1114"/>
<path transform="translate(659,640)" d="m0 0c4.24 2.83 3.98 5.12 5 10h2c0.99 3.96 1.98 7.92 3 12-5.7-5.7-8.07-14.3-10-22z" fill="#000001"/>
<path transform="translate(494,494)" d="m0 0h1c0.66 2.31 1.32 4.62 2 7h1v13c-0.99 0.33-1.98 0.66-3 1-0.33-6.93-0.66-13.9-1-21z" fill="#48616F"/>
<path transform="translate(673,651)" d="m0 0h3l2.93 5.27c1.08 1.89 1.08 1.89 3.07 3.73-0.99 1.32-1.98 2.64-3 4-1.01-1.79-2-3.58-3-5.38-0.835-1.5-0.835-1.5-1.69-3.02-1.31-2.6-1.31-2.6-1.31-4.6z" fill="#6E96AD"/>
<path transform="translate(628,570)" d="m0 0h2c1.2 2.93 2.38 5.87 3.56 8.81 0.342 0.833 0.684 1.67 1.04 2.53 0.319 0.802 0.638 1.6 0.967 2.43 0.298 0.738 0.597 1.48 0.905 2.24 0.529 1.99 0.529 1.99-0.471 4.99-1.15-2.56-2.3-5.12-3.44-7.69-0.488-1.08-0.488-1.08-0.986-2.19-1.64-3.69-3.01-7.09-3.58-11.1z" fill="#000001"/>
<path transform="translate(353,1253)" d="m0 0c2.96 3.5 5.23 6.98 7.31 11.1 0.799 1.53 0.799 1.53 1.61 3.1 1.11 2.93 1.24 4 0.0742 6.84-1.21-2.42-2.42-4.83-3.62-7.25-0.855-1.7-1.72-3.4-2.6-5.09-2.78-5.35-2.78-5.35-2.78-8.66z" fill="#000102"/>
<path transform="translate(845 1414)" d="m0 0c0.799 0.00902 1.6 0.018 2.42 0.0273 0.603 0.0116 1.21 0.0232 1.83 0.0352-4.42 2.94-7.61 5-13 5v-4c2.99-0.872 5.64-1.11 8.75-1.06z" fill="#80A4B9"/>
<path transform="translate(795,1100)" d="m0 0c1.33 3.99 0.353 6.11-0.812 10.1-0.357 1.26-0.714 2.52-1.08 3.82-1.11 3.05-1.11 3.05-3.11 4.05 1.1-6.31 2.58-12.1 5-18z" fill="#000102"/>
<path transform="translate(727,756)" d="m0 0c2.68 3.28 4.45 6.73 6.25 10.6 0.541 1.14 1.08 2.27 1.64 3.44 1.11 3 1.11 3 0.109 6-0.95-1.9-1.9-3.8-2.84-5.7-0.754-1.5-1.52-2.99-2.31-4.47-0.361-0.686-0.722-1.37-1.09-2.08-0.503-0.936-0.503-0.936-1.02-1.89-0.734-1.86-0.734-1.86-0.734-5.86z" fill="#000204"/>
<path transform="translate(799,1058)" d="m0 0h2c-0.33 5.94-0.66 11.9-1 18-0.66 0.33-1.32 0.66-2 1-0.0269-2.79-0.0468-5.58-0.0625-8.38-0.00838-0.794-0.0168-1.59-0.0254-2.41-0.0254-5.99-0.0254-5.99 1.09-8.22z" fill="#000103"/>
<path transform="translate(654,607)" d="m0 0h2c0.33 0.66 0.66 1.32 1 2h3c0.66 0.33 1.32 0.66 2 1-1 3-1 3-3.06 4.19-0.639 0.268-1.28 0.536-1.94 0.812-3-5.75-3-5.75-3-8z" fill="#607E90"/>
<path transform="translate(491,1382)" d="m0 0h6c0.33 0.99 0.66 1.98 1 3h-19v-1c5.94-0.495 5.94-0.495 12-1v-1z" fill="#7FA4BA"/>
<path transform="translate(686,1347)" d="m0 0h1c0.188 2.38 0.188 2.38 0 5-0.99 0.66-1.98 1.32-3 2-1.05 1.63-2.06 3.3-3 5-0.33-0.99-0.66-1.98-1-3 1.18-2.26 1.18-2.26 2.88-4.69 0.554-0.808 1.11-1.62 1.68-2.45 0.477-0.615 0.954-1.23 1.45-1.86zm-8 12c0.66 0.33 1.32 0.66 2 1-0.99 0.66-1.98 1.32-3 2 0.33-0.99 0.66-1.98 1-3z" fill="#385565"/>
<path transform="translate(427,700)" d="m0 0c0.66 0.33 1.32 0.66 2 1-0.619 1.46-1.25 2.92-1.88 4.38-0.348 0.812-0.696 1.62-1.05 2.46-1.07 2.16-1.07 2.16-3.07 4.16 0.186-0.763 0.371-1.53 0.562-2.31 0.666-2.78 0.666-2.78-0.562-5.69v-2c1.88-1.06 1.88-1.06 4-2z" fill="#3F535F"/>
<path transform="translate(541,405)" d="m0 0h27v1h-27v-1z" fill="#000103"/>
<path transform="translate(387,1306)" d="m0 0c0.99 1.32 1.98 2.64 3 4-0.66 0.66-1.32 1.32-2 2-0.33 0.99-0.66 1.98-1 3-0.99-0.66-1.98-1.32-3-2 0.375-2.94 0.375-2.94 1-6 0.66-0.33 1.32-0.66 2-1z" fill="#76AECD"/>
<path transform="translate(718,743)" d="m0 0c1.41 2.64 2.37 5.07 3 8-0.99 0.33-1.98 0.66-3 1-0.99-2.64-1.98-5.28-3-8 0.99-0.33 1.98-0.66 3-1z" fill="#10171B"/>
<path transform="translate(831,1420)" d="m0 0c0.33 1.32 0.66 2.64 1 4-4.75 4-4.75 4-7 4 1.44-3.37 3.33-5.51 6-8z" fill="#000204"/>
<path transform="translate(724,787)" d="m0 0c2.66 1.33 2.98 2.69 4.19 5.38 0.365 0.791 0.73 1.58 1.11 2.4 0.707 2.23 0.707 2.23-0.293 5.23-4.41-8.26-4.41-8.26-5-13z" fill="#000001"/>
<path transform="translate(710,740)" d="m0 0c2 4 2 4 2.5 6.62 0.311 2.55 0.311 2.55 2.5 4.38-1.32-0.33-2.64-0.66-4-1-0.33-3.3-0.66-6.6-1-10z" fill="#2F3D46"/>
<path transform="translate(363,1274)" d="m0 0h2c3.08 5.42 3.08 5.42 2.69 8.38-0.227 0.536-0.454 1.07-0.688 1.62-4-6.62-4-6.62-4-10z" fill="#000102"/>
<path transform="translate(722,754)" d="m0 0h1c2 5.62 2 5.62 2 9h-2c-2.09-4.43-2.09-4.43-1.62-7.31 0.206-0.557 0.413-1.11 0.625-1.69z" fill="#000204"/>
<path transform="translate(720,777)" d="m0 0c2.59 1.29 2.96 2.33 4 5 0.125 2.75 0.125 2.75 0 5-2.83-3.2-3.52-5.78-4-10z" fill="#000001"/>
<path transform="translate(737,779)" d="m0 0c3 2 3 2 3.73 4.16 0.151 0.812 0.302 1.62 0.457 2.46 0.159 0.817 0.317 1.63 0.48 2.48 0.164 0.94 0.164 0.94 0.332 1.9-2.44-2.44-3.59-4.86-5-8v-3z" fill="#000102"/>
<path transform="translate(654,630)" d="m0 0h2c3.12 6.62 3.12 6.62 2 10-1.32-3.3-2.64-6.6-4-10z" fill="#000102"/>
<path transform="translate(715,766)" d="m0 0 2 1c0.625 3.06 0.625 3.06 1 6h2c-0.33 1.32-0.66 2.64-1 4-0.671-1.46-1.34-2.92-2-4.38-0.371-0.812-0.742-1.62-1.12-2.46-0.875-2.16-0.875-2.16-0.875-4.16z" fill="#000001"/>
<path transform="translate(669,662)" d="m0 0c2.8 2.07 3.03 3.14 3.69 6.69 0.103 1.09 0.206 2.19 0.312 3.31-2.26-2.26-2.98-4-4-7v-3z" fill="#000001"/>
<path transform="translate(661,631)" d="m0 0c2 3.75 2 3.75 2 6 0.66 0.33 1.32 0.66 2 1l-2 2c-1.56-2.81-1.56-2.81-3-6 0.33-0.99 0.66-1.98 1-3z" fill="#182025"/>
<path transform="translate(656,620)" d="m0 0c1.41 2.64 2.37 5.07 3 8-0.99 0.495-0.99 0.495-2 1-2.09-4.43-2.09-4.43-1.62-7.31 0.206-0.557 0.413-1.11 0.625-1.69z" fill="#202A31"/>
<path transform="translate(710,755)" d="m0 0c3.94 3.32 3.94 3.32 4.25 6.75-0.0825 0.742-0.165 1.49-0.25 2.25-2-1-2-1-2.63-2.85-0.162-0.731-0.325-1.46-0.492-2.21-0.168-0.733-0.335-1.47-0.508-2.22-0.121-0.566-0.242-1.13-0.367-1.71z" fill="#000001"/>
<path transform="translate(711,734)" d="m0 0c1.94 0.812 1.94 0.812 4 2 0.33 0.99 0.66 1.98 1 3h-4c-0.33-1.65-0.66-3.3-1-5z" fill="#11171C"/>
<path transform="translate(426,1417)" d="m0 0h14v1h-14v-1z" fill="#000204"/>
<path transform="translate(715,751)" d="m0 0h1c0.66 3.3 1.32 6.6 2 10h-2c-2.43-6.29-2.43-6.29-1-10z" fill="#1B242A"/>
<path transform="translate(650,607)" d="m0 0c1.78 2.67 2.88 5.03 4 8-0.99-0.33-1.98-0.66-3-1-0.33-2.31-0.66-4.62-1-7z" fill="#090D10"/>
<path transform="translate(285,1395)" d="m0 0h12v1h-12v-1z" fill="#80A4B9"/>
<path transform="translate(645,1303)" d="m0 0c0.66 0.33 1.32 0.66 2 1-0.99 1.48-0.99 1.48-2 3-1.32-0.33-2.64-0.66-4-1h2v-2c0.66-0.33 1.32-0.66 2-1z" fill="#000204"/>
<path transform="translate(756,822)" d="m0 0c2.52 1.97 2.99 2.97 3.69 6.19 0.103 0.928 0.206 1.86 0.312 2.81-2.69-2.69-3.06-5.38-4-9z" fill="#000001"/>
<path transform="translate(723,749)" d="m0 0c0.99 0.33 1.98 0.66 3 1 0.33 1.65 0.66 3.3 1 5-0.99-0.33-1.98-0.66-3-1-0.33-1.65-0.66-3.3-1-5z" fill="#35454F"/>
<path transform="translate(719,739)" d="m0 0c3 2 3 2 3.69 4.12 0.155 0.928 0.155 0.928 0.312 1.88h-2v-2h-2v-4z" fill="#000204"/>
<path transform="translate(887,1388)" d="m0 0c0.99 0.33 1.98 0.66 3 1-0.33 1.32-0.66 2.64-1 4h-2v-5z" fill="#000204"/>
<path transform="translate(665,643)" d="m0 0c0.99 0.33 1.98 0.66 3 1 0.33 2.31 0.66 4.62 1 7-0.66-0.33-1.32-0.66-2-1-0.731-2.31-1.4-4.65-2-7z" fill="#000204"/>
<path transform="translate(814,1420)" d="m0 0h5c-0.33 0.66-0.66 1.32-1 2h-5c0.33-0.66 0.66-1.32 1-2z" fill="#000204"/>
<path transform="translate(752,854)" d="m0 0h2c0.33 2.31 0.66 4.62 1 7-2.36-2.36-2.49-3.78-3-7z" fill="#000001"/>
<path transform="translate(753,814)" d="m0 0c2.57 2.57 2.54 4.48 3 8-2.57-2.57-2.54-4.48-3-8z" fill="#000001"/>
<path transform="translate(730,800)" d="m0 0c1.56 1.81 1.56 1.81 3 4-0.33 0.99-0.66 1.98-1 3-2-3-2-3-2-7z"/>
<path transform="translate(694,707)" d="m0 0c1.56 1.81 1.56 1.81 3 4-0.33 0.99-0.66 1.98-1 3-2-3-2-3-2-7z" fill="#26323A"/>
<path transform="translate(834,1418)" d="m0 0c0.33 0.66 0.66 1.32 1 2 0.66 0.33 1.32 0.66 2 1-1.32 0.33-2.64 0.66-4 1-0.33-0.99-0.66-1.98-1-3 0.66-0.33 1.32-0.66 2-1z" fill="#1C262C"/>
<path transform="translate(855,1392)" d="m0 0c0.66 0.33 1.32 0.66 2 1v2c-1.32-0.33-2.64-0.66-4-1 0.66-0.66 1.32-1.32 2-2z" fill="#000102"/>
<path transform="translate(510,1376)" d="m0 0h8v1h-8v-1z" fill="#000204"/>
<path transform="translate(774,866)" d="m0 0 3 3c-0.33 0.99-0.66 1.98-1 3-2-3-2-3-2-6z" fill="#000001"/>
<path transform="translate(745,837)" d="m0 0 3 3c-0.33 0.99-0.66 1.98-1 3-0.66-1.98-1.32-3.96-2-6z"/>
<path transform="translate(742,790)" d="m0 0 3 3c-0.33 0.99-0.66 1.98-1 3-0.66-1.98-1.32-3.96-2-6z" fill="#000001"/>
<path transform="translate(379,1295)" d="m0 0h2c0.33 1.32 0.66 2.64 1 4h-2c-0.33-1.32-0.66-2.64-1-4z" fill="#495E6B"/>
<path transform="translate(348,1241)" d="m0 0c0.66 0.66 1.32 1.32 2 2-0.375 2.12-0.375 2.12-1 4-0.33-1.98-0.66-3.96-1-6z" fill="#000102"/>
<path transform="translate(743,830)" d="m0 0c0.99 1.49 0.99 1.49 2 3-0.33 0.99-0.66 1.98-1 3-0.33-1.98-0.66-3.96-1-6z" fill="#000001"/>
<path transform="translate(719,765)" d="m0 0h2c0.33 1.32 0.66 2.64 1 4-0.99-0.66-1.98-1.32-3-2v-2z" fill="#000204"/>
<path transform="translate(653,616)" d="m0 0 3 3h-3v-3z" fill="#364751"/>
<path transform="translate(808,993)" d="m0 0h1v6h-1v-6z"/>
<path transform="translate(763,880)" d="m0 0c0.99 1.49 0.99 1.49 2 3-0.33 0.66-0.66 1.32-1 2-0.33-1.65-0.66-3.3-1-5z"/>
<path transform="translate(756,863)" d="m0 0 2 1c-0.33 1.32-0.66 2.64-1 4-0.33-1.65-0.66-3.3-1-5z"/>
<path transform="translate(768,850)" d="m0 0c0.99 1.49 0.99 1.49 2 3-0.33 0.66-0.66 1.32-1 2-0.33-1.65-0.66-3.3-1-5z" fill="#000102"/>
<path transform="translate(422,712)" d="m0 0c0.33 0.99 0.66 1.98 1 3-0.99 0.495-0.99 0.495-2 1 0.33-1.32 0.66-2.64 1-4z" fill="#000204"/>
<path transform="translate(414,709)" d="m0 0c0.33 0.99 0.66 1.98 1 3-0.99 0.495-0.99 0.495-2 1 0.33-1.32 0.66-2.64 1-4z" fill="#000103"/>
<path transform="translate(135,1409)" d="m0 0h5v1h-5v-1z" fill="#000204"/>
<path transform="translate(392,1294)" d="m0 0c0.33 0.66 0.66 1.32 1 2 0.66 0.33 1.32 0.66 2 1h-3v-3z" fill="#000204"/>
<path transform="translate(373,1290)" d="m0 0v3c-0.66-0.66-1.32-1.32-2-2 0.66-0.33 1.32-0.66 2-1z" fill="#192227"/>
<path transform="translate(778,876)" d="m0 0c0.66 1.32 1.32 2.64 2 4-0.66-0.33-1.32-0.66-2-1v-3z"/>
<path transform="translate(750,849)" d="m0 0 2 1c-0.33 0.99-0.66 1.98-1 3-0.33-1.32-0.66-2.64-1-4z"/>
<path transform="translate(760,832)" d="m0 0 2 1c-0.33 0.99-0.66 1.98-1 3-0.33-1.32-0.66-2.64-1-4z"/>
<path transform="translate(740,824)" d="m0 0c0.66 1.32 1.32 2.64 2 4-0.66-0.33-1.32-0.66-2-1v-3z"/>
<path transform="translate(737,817)" d="m0 0 2 1c-0.33 0.99-0.66 1.98-1 3-0.33-1.32-0.66-2.64-1-4z"/>
<path transform="translate(724,776)" d="m0 0h2c-0.33 1.32-0.66 2.64-1 4-0.33-1.32-0.66-2.64-1-4z" fill="#000204"/>
<path transform="translate(418,700)" d="m0 0 1 2c-0.66 0.66-1.32 1.32-2 2 0.33-1.32 0.66-2.64 1-4z" fill="#000204"/>
<path transform="translate(664,640)" d="m0 0h2c-0.33 0.99-0.66 1.98-1 3-0.33-0.99-0.66-1.98-1-3z" fill="#192228"/>
<path transform="translate(659,628)" d="m0 0c0.33 1.32 0.66 2.64 1 4-0.66-0.99-1.32-1.98-2-3l1-1z" fill="#192228"/>
<path transform="translate(509,270)" d="m0 0h5v1h-5v-1z" fill="#000204"/>
<path transform="translate(373,1294)" d="m0 0c0.99 0.495 0.99 0.495 2 1-0.33 0.66-0.66 1.32-1 2-0.33-0.99-0.66-1.98-1-3z" fill="#000204"/>
<path transform="translate(388,1287)" d="m0 0c0.99 0.495 0.99 0.495 2 1-0.33 0.66-0.66 1.32-1 2-0.33-0.99-0.66-1.98-1-3z" fill="#000102"/>
<path transform="translate(345,1235)" d="m0 0c0.99 0.495 0.99 0.495 2 1-0.33 0.66-0.66 1.32-1 2-0.33-0.99-0.66-1.98-1-3z" fill="#000103"/>
<path transform="translate(759,871)" d="m0 0c0.99 1.49 0.99 1.49 2 3h-2v-3z"/>
<path transform="translate(765,844)" d="m0 0 2 1c-0.33 0.66-0.66 1.32-1 2-0.33-0.99-0.66-1.98-1-3z"/>
<path transform="translate(715,740)" d="m0 0h2c-0.33 0.99-0.66 1.98-1 3-0.33-0.99-0.66-1.98-1-3z" fill="#000204"/>
<path transform="translate(419,717)" d="m0 0 1 4z" fill="#000204"/>
<path transform="translate(674,671)" d="m0 0 2 1c-0.33 0.66-0.66 1.32-1 2-0.33-0.99-0.66-1.98-1-3z" fill="#80A4B9"/>
<path transform="translate(669,652)" d="m0 0h2v2h-2v-2z" fill="#000204"/>
<path transform="translate(660,606)" d="m0 0c0.99 1.49 0.99 1.49 2 3h-2v-3z" fill="#A3C6DA"/>
<path transform="translate(523,485)" d="m0 0c1.49 0.99 1.49 0.99 3 2h-3v-2z" fill="#000204"/>
<path transform="translate(620,271)" d="m0 0 4 1z" fill="#000204"/>
<path transform="translate(592,270)" d="m0 0 4 1z" fill="#000204"/>
<path transform="translate(104,1404)" d="m0 0c0.33 0.66 0.66 1.32 1 2-0.66-0.33-1.32-0.66-2-1 0.33-0.33 0.66-0.66 1-1z" fill="#000204"/>
<path transform="translate(880,1394)" d="m0 0c3 1 3 1 3 1z" fill="#000204"/>
<path transform="translate(385,1296)" d="m0 0c0.99 0.495 0.99 0.495 2 1-0.99 0.495-0.99 0.495-2 1v-2z" fill="#2A3840"/>
<path transform="translate(378,1293)" d="m0 0c0.99 0.495 0.99 0.495 2 1-0.99 0.495-0.99 0.495-2 1v-2z" fill="#2A3840"/>
<path transform="translate(374,1293)" d="m0 0h2c-0.33 0.66-0.66 1.32-1 2-0.33-0.66-0.66-1.32-1-2z" fill="#80A4B9"/>
<path transform="translate(368,1286)" d="m0 0h2c-0.33 0.66-0.66 1.32-1 2-0.33-0.66-0.66-1.32-1-2z" fill="#000102"/>
<path transform="translate(707,739)" d="m0 0h2c-0.33 0.66-0.66 1.32-1 2-0.33-0.66-0.66-1.32-1-2z" fill="#000204"/>
<path transform="translate(579,270)" d="m0 0c3 1 3 1 3 1z" fill="#000204"/>
<path transform="translate(422,1417)" d="m0 0 2 1z" fill="#000204"/>
<path transform="translate(962,1411)" d="m0 0 2 1z" fill="#000204"/>
<path transform="translate(436,1392)" d="m0 0 2 1z" fill="#7AB5D5"/>
<path transform="translate(488,1382)" d="m0 0 2 1z" fill="#80A4B9"/>
<path transform="translate(647,1301)" d="m0 0 2 1z" fill="#000102"/>
<path transform="translate(726,781)" d="m0 0 2 1z" fill="#000204"/>
<path transform="translate(630,275)" d="m0 0 2 1z"/>
<path transform="translate(627,273)" d="m0 0 2 1z" fill="#000204"/>
</svg>
